<svg xmlns="http://www.w3.org/2000/svg" xmlns:xlink="http://www.w3.org/1999/xlink" width="651.961" height="199.022" viewBox="0 0 651.961 199.022">
  <defs>
    <linearGradient id="linear-gradient" x1="0.202" y1="-0.477" x2="0.798" y2="1.477" gradientUnits="objectBoundingBox">
      <stop offset="0" stop-color="#ffc200"/>
      <stop offset="1" stop-color="#ff9400"/>
    </linearGradient>
  </defs>
  <g id="Grupo_94" data-name="Grupo 94" transform="translate(-1270.325 -1249.569)">
    <path id="Caminho_224" data-name="Caminho 224" d="M62.29,0h527.38a62.29,62.29,0,0,1,62.29,62.29v74.441a62.29,62.29,0,0,1-62.29,62.29H62.29A62.29,62.29,0,0,1,0,136.732V62.29A62.29,62.29,0,0,1,62.29,0Z" transform="translate(1270.325 1249.569)" fill="url(#linear-gradient)"/>
    <path id="Caminho_225" data-name="Caminho 225" d="M-236.811-29.3q.876,4.478,2.969,6.425a5.638,5.638,0,0,0,4.381,1.752,6.294,6.294,0,0,0,4.186-2.336,10.3,10.3,0,0,0,2.288-5.939q0-2.434,2.336-2.434,3.018-.1,5.987-.243t5.987-.243a3.591,3.591,0,0,1,2.385.535,4.242,4.242,0,0,1,.73,2.385,41.046,41.046,0,0,1-.049,9.151,21.583,21.583,0,0,1-3.067,8.664,20.794,20.794,0,0,1-11.877,9.346A28.61,28.61,0,0,1-232.43-.925a22.06,22.06,0,0,1-11-4.624A38.318,38.318,0,0,1-246.6-8.47a17.442,17.442,0,0,1-2.58-3.407,38.56,38.56,0,0,1-3.6-9.3,58.154,58.154,0,0,1-1.7-11.05,63.094,63.094,0,0,1,.389-11.585,47.043,47.043,0,0,1,2.677-10.952,34.051,34.051,0,0,1,5.111-9.1A21.477,21.477,0,0,1-238.661-70a23.915,23.915,0,0,1,7.691-2.093,37.928,37.928,0,0,1,7.886.146,30.164,30.164,0,0,1,4.77,1.12,22.023,22.023,0,0,1,4.381,2,10.776,10.776,0,0,1,3.748,3.6,19.854,19.854,0,0,1,2.19,4.77,25.516,25.516,0,0,1,1.022,5.208,38.039,38.039,0,0,1,.146,5.014,3.008,3.008,0,0,1-.535,2.093,2.968,2.968,0,0,1-1.9.633q-2.726.292-5.5.389l-5.5.195a3.894,3.894,0,0,1-2.385-.341,4.825,4.825,0,0,1-1.022-2.288,6.408,6.408,0,0,0-1.363-2.872,5.209,5.209,0,0,0-2.239-1.558A5.127,5.127,0,0,0-230-54.128a6.877,6.877,0,0,0-2.921,1.46,13,13,0,0,0-3.115,4.138,17.642,17.642,0,0,0-1.46,5.014,34.071,34.071,0,0,0-.195,7.253Q-237.4-32.711-236.811-29.3Zm68.926,2.142q-2.434.195-4.527.292t-4.527.292q-.195,4.673-.049,11.1t.633,13.143q.1,1.752-.341,2.19a3.7,3.7,0,0,1-2.288.438q-3.5.1-6.912.049t-6.717-.049q-1.85,0-2.872-.049a2.383,2.383,0,0,1-1.509-.487,2.178,2.178,0,0,1-.584-1.46q-.1-1.022-.195-2.872-.195-4.673-.389-9.492t-.487-9.589q-.389-13.337-.584-26.869a44.037,44.037,0,0,1,.438-6.328,19.491,19.491,0,0,1,1.9-5.939,17.809,17.809,0,0,1,4.43-6.231,18.539,18.539,0,0,1,5.89-3.5,25.994,25.994,0,0,1,6.815-1.46,68.116,68.116,0,0,1,7.3-.195q3.5.195,6.961.438a28.989,28.989,0,0,1,6.474,1.168,16.219,16.219,0,0,1,5.4,2.823,11.864,11.864,0,0,1,3.651,5.306,36.649,36.649,0,0,1,2.288,8.226,66,66,0,0,1,.73,8.518q.1,3.31.049,6.571t-.049,6.474q.195,7.3.341,14.7t.341,14.8a23.383,23.383,0,0,1-.1,2.434,2.135,2.135,0,0,1-.535,1.314,2.673,2.673,0,0,1-1.363.633q-.925.195-2.677.389-1.266.1-2.385.1h-2.482q-2.142.195-4.381.341t-4.381.243A4.388,4.388,0,0,1-166.863-.1q-.535-.389-.633-2.142-.195-7.3-.341-13.24T-167.885-27.161Zm-9.638-14.408q2.629-.195,5.111-.146t4.527.049q0-3.213.049-6.766t-.049-6.669a2.936,2.936,0,0,0-.681-1.8,3.851,3.851,0,0,0-1.46-.974,5.989,5.989,0,0,0-1.9-.389q-1.022-.049-1.9-.049-3.31.195-3.6,3.213a49.824,49.824,0,0,0-.341,6.571Q-177.718-45.269-177.523-41.57Zm37.87-28.232q-.1-1.752.341-2.19a3.913,3.913,0,0,1,2.093-.633q3.213-.195,6.425-.341t6.328-.341A40.329,40.329,0,0,1-104.7-68.829a19.2,19.2,0,0,1,5.841,4.868,44.4,44.4,0,0,1,7.983,14.846,41.33,41.33,0,0,1,1.363,17.085A32.429,32.429,0,0,1-95.5-16.063a40.379,40.379,0,0,1-12.9,11.1,45.844,45.844,0,0,1-9.443,3.943,54.2,54.2,0,0,1-9.93,1.9,39.555,39.555,0,0,1-3.943.389l-4.04.195a4.418,4.418,0,0,1-2.775-.584q-.633-.584-.633-2.823-.1-5.452-.1-10.806v-10.9q0-6.815.1-12.9t.1-11.731q0-5.646-.1-10.952T-139.653-69.8Zm18.4,48.384a15.092,15.092,0,0,0,7.983-2.872,14.083,14.083,0,0,0,4.77-6.182,21.038,21.038,0,0,0,1.168-6.863,32.008,32.008,0,0,0-.779-6.961,9.184,9.184,0,0,0-1.9-4.138,10.061,10.061,0,0,0-3.261-2.629,10.338,10.338,0,0,0-3.943-1.071,8.8,8.8,0,0,0-3.845.535q-.195,7.4-.243,14.895T-121.253-21.418Zm69.121-5.744q-2.434.195-4.527.292t-4.527.292q-.195,4.673-.049,11.1T-60.6-2.336q.1,1.752-.341,2.19a3.7,3.7,0,0,1-2.288.438q-3.5.1-6.912.049T-76.86.292q-1.85,0-2.872-.049a2.383,2.383,0,0,1-1.509-.487,2.178,2.178,0,0,1-.584-1.46q-.1-1.022-.195-2.872-.195-4.673-.389-9.492t-.487-9.589q-.389-13.337-.584-26.869a44.038,44.038,0,0,1,.438-6.328,19.49,19.49,0,0,1,1.9-5.939,17.809,17.809,0,0,1,4.43-6.231,18.539,18.539,0,0,1,5.89-3.5,25.994,25.994,0,0,1,6.815-1.46,68.116,68.116,0,0,1,7.3-.195q3.5.195,6.961.438a28.989,28.989,0,0,1,6.474,1.168,16.219,16.219,0,0,1,5.4,2.823,11.864,11.864,0,0,1,3.651,5.306,36.649,36.649,0,0,1,2.288,8.226A66,66,0,0,1-31.2-47.7q.1,3.31.049,6.571t-.049,6.474q.195,7.3.341,14.7t.341,14.8a23.381,23.381,0,0,1-.1,2.434,2.135,2.135,0,0,1-.535,1.314,2.673,2.673,0,0,1-1.363.633q-.925.195-2.677.389-1.266.1-2.385.1h-2.483Q-42.2-.1-44.442.049t-4.381.243A4.388,4.388,0,0,1-51.11-.1q-.535-.389-.633-2.142-.195-7.3-.341-13.24T-52.132-27.161ZM-61.77-41.57q2.629-.195,5.111-.146t4.527.049q0-3.213.049-6.766t-.049-6.669a2.936,2.936,0,0,0-.681-1.8,3.851,3.851,0,0,0-1.46-.974,5.989,5.989,0,0,0-1.9-.389q-1.022-.049-1.9-.049-3.31.195-3.6,3.213a49.823,49.823,0,0,0-.341,6.571Q-61.965-45.269-61.77-41.57ZM16.6-44.88l-2.385-1.7q-1.022-.73-1.947-1.314t-1.85-1.266q-.925-.681-2.19-1.558Q4.235-53.544,1.12-53.544t-4.43,1.8q-1.314,1.8-.195,4.819t5.7,6.036q2.823,1.85,5.6,3.407t4.43,2.726a47.35,47.35,0,0,1,4.138,3.067,19.614,19.614,0,0,1,3.115,3.261,13.016,13.016,0,0,1,2,3.894,18.857,18.857,0,0,1,.779,5.062q.1,6.425-2.726,10.173a17.636,17.636,0,0,1-7.2,5.646A31.141,31.141,0,0,1,2.823-1.266a67.338,67.338,0,0,1-9.395.292q-3.7-.195-7.3-.681t-7.2-1.168a1.765,1.765,0,0,1-1.509-1.12,5.728,5.728,0,0,1-.341-2l-.535-5.354q-.243-2.434-.438-4.624t-.292-4.284q-.1-2.093-.1-4.43,2.142.876,4.965,1.8t5.841,1.606a48.662,48.662,0,0,0,6.036.974A17.23,17.23,0,0,0-1.9-20.541,3.676,3.676,0,0,0,.292-21.71,2.379,2.379,0,0,0,.779-23.8a6,6,0,0,0-1.46-2.629,13.52,13.52,0,0,0-3.651-2.775q-2.044-1.168-4.722-2.823t-5.306-3.553a49.677,49.677,0,0,1-4.819-3.943,17.756,17.756,0,0,1-3.359-4.089A18,18,0,0,1-24.484-56.27a21.005,21.005,0,0,1,4.722-10.076,18.978,18.978,0,0,1,7.886-5.208,24.686,24.686,0,0,1,9.735-1.217,41.031,41.031,0,0,1,10.222,2,46.559,46.559,0,0,1,9.395,4.284,31.5,31.5,0,0,1,7.2,5.744,1.836,1.836,0,0,1,.195,1.9,6.622,6.622,0,0,1-.974,2.093q-1.752,2.823-3.553,5.792T16.6-44.88Zm44.3-3.7q-.1,8.08-.146,16.015T60.7-16.55q-.292,6.036-.292,11.682a2.523,2.523,0,0,1-2.239,2.823,19.367,19.367,0,0,1-2.044.292q-1.071.1-2.142.1-4.284.195-8.178,0a4.966,4.966,0,0,1-2.872-.681,4.01,4.01,0,0,1-.73-2.629q-.195-2.823-.292-5.549t-.195-5.354q-.195-8.664-.341-17.085t-.341-16.891q-.1-.584-.146-1.168t-.049-1.363q-1.655,0-3.31-.049t-3.31-.049H30.91a3.222,3.222,0,0,1-1.7-.584,2.331,2.331,0,0,1-.73-1.752q-.1-3.115-.146-6.328t-.146-6.425a1.76,1.76,0,0,1,.438-1.363,2.916,2.916,0,0,1,1.314-.584,4.721,4.721,0,0,1,.925-.1h.925Q42.3-69.9,52.668-70.045t20.688-.341h.876q2.434,0,2.921.487t.487,2.921q.1,2.921.146,5.939t.049,5.939q0,2.239-.487,2.629a4.581,4.581,0,0,1-2.531.292q-3.407-.195-6.815-.1t-7.107.1Zm57.925,16.258q.584.974.974,1.558t.876,1.363l6.815,10.125q3.407,5.062,6.815,10.027a5.134,5.134,0,0,1,1.071,1.558q.974,1.363.73,2.093t-1.9,1.022q-3.7.876-7.4,1.7t-7.594,1.509a1.3,1.3,0,0,1-1.12-.146,7.416,7.416,0,0,1-1.12-.73,2.071,2.071,0,0,1-.535-.876q-.146-.487-.341-.974-3.115-6.036-6.133-12.023t-6.328-12.023q-.1,2.336-.146,4.722t-.146,4.819q-.1,3.407-.292,6.961t-.389,7.058a4.744,4.744,0,0,1-.681,2.775q-.584.633-2.726.633-2.531.1-4.965.1H89.321q-2.239-.1-2.823-.73a4.966,4.966,0,0,1-.681-2.872q-.487-13.143-1.022-25.993t-.535-25.993q0-3.115-.195-6.377t-.195-6.377a11.741,11.741,0,0,1,.1-1.7,1.92,1.92,0,0,1,.389-.974,1.639,1.639,0,0,1,.876-.487q.584-.146,1.655-.341t2-.341a12.814,12.814,0,0,1,2-.146q8.956-.487,18.205-.584a33.4,33.4,0,0,1,6.961.535,44.235,44.235,0,0,1,6.766,1.8,19.028,19.028,0,0,1,7.837,5.208,20.764,20.764,0,0,1,4.381,7.691A23.2,23.2,0,0,1,136-50.039a20.536,20.536,0,0,1-2.385,8.275,18.7,18.7,0,0,1-5.744,6.425A17.5,17.5,0,0,1,118.819-32.321ZM104.9-45.464q2.531.195,4.819.292a7.909,7.909,0,0,0,4.43-1.168,5,5,0,0,0,2.239-2.58,7.214,7.214,0,0,0,.487-3.5,6.585,6.585,0,0,0-1.217-3.213,3.875,3.875,0,0,0-2.872-1.606,26.022,26.022,0,0,0-3.894-.1q-1.947.1-3.991.1Zm68.829,18.3q-2.434.195-4.527.292t-4.527.292q-.195,4.673-.049,11.1t.633,13.143q.1,1.752-.341,2.19a3.7,3.7,0,0,1-2.288.438q-3.5.1-6.912.049T149,.292q-1.85,0-2.872-.049a2.383,2.383,0,0,1-1.509-.487,2.178,2.178,0,0,1-.584-1.46q-.1-1.022-.195-2.872-.195-4.673-.389-9.492t-.487-9.589q-.389-13.337-.584-26.869a44.037,44.037,0,0,1,.438-6.328,19.491,19.491,0,0,1,1.9-5.939,17.809,17.809,0,0,1,4.43-6.231,18.539,18.539,0,0,1,5.89-3.5,25.994,25.994,0,0,1,6.815-1.46,68.116,68.116,0,0,1,7.3-.195q3.5.195,6.961.438a28.989,28.989,0,0,1,6.474,1.168,16.219,16.219,0,0,1,5.4,2.823,11.864,11.864,0,0,1,3.651,5.306,36.649,36.649,0,0,1,2.288,8.226,66,66,0,0,1,.73,8.518q.1,3.31.049,6.571t-.049,6.474q.195,7.3.341,14.7t.341,14.8a23.383,23.383,0,0,1-.1,2.434,2.135,2.135,0,0,1-.535,1.314,2.673,2.673,0,0,1-1.363.633q-.925.195-2.677.389-1.266.1-2.385.1H185.8q-2.142.195-4.381.341t-4.381.243A4.388,4.388,0,0,1,174.749-.1q-.535-.389-.633-2.142-.195-7.3-.341-13.24T173.726-27.161ZM164.088-41.57q2.629-.195,5.111-.146t4.527.049q0-3.213.049-6.766t-.049-6.669a2.936,2.936,0,0,0-.681-1.8,3.851,3.851,0,0,0-1.46-.974,5.989,5.989,0,0,0-1.9-.389q-1.022-.049-1.9-.049-3.31.195-3.6,3.213a49.824,49.824,0,0,0-.341,6.571Q163.894-45.269,164.088-41.57Zm72.723,9.249q.584.974.974,1.558t.876,1.363l6.815,10.125q3.407,5.062,6.815,10.027a5.134,5.134,0,0,1,1.071,1.558q.974,1.363.73,2.093t-1.9,1.022q-3.7.876-7.4,1.7T237.2-1.363a1.3,1.3,0,0,1-1.12-.146,7.416,7.416,0,0,1-1.12-.73,2.071,2.071,0,0,1-.535-.876q-.146-.487-.341-.974-3.115-6.036-6.133-12.023t-6.328-12.023q-.1,2.336-.146,4.722t-.146,4.819q-.1,3.407-.292,6.961t-.389,7.058a4.745,4.745,0,0,1-.681,2.775q-.584.633-2.726.633-2.531.1-4.965.1h-4.965q-2.239-.1-2.823-.73a4.966,4.966,0,0,1-.681-2.872q-.487-13.143-1.022-25.993t-.535-25.993q0-3.115-.195-6.377t-.195-6.377a11.742,11.742,0,0,1,.1-1.7,1.92,1.92,0,0,1,.389-.974,1.639,1.639,0,0,1,.876-.487q.584-.146,1.655-.341t2-.341a12.814,12.814,0,0,1,2-.146q8.956-.487,18.205-.584a33.4,33.4,0,0,1,6.961.535,44.234,44.234,0,0,1,6.766,1.8,19.028,19.028,0,0,1,7.837,5.208,20.764,20.764,0,0,1,4.381,7.691,23.2,23.2,0,0,1,.974,8.713,20.536,20.536,0,0,1-2.385,8.275,18.7,18.7,0,0,1-5.744,6.425A17.5,17.5,0,0,1,236.811-32.321ZM222.89-45.464q2.531.195,4.819.292a7.909,7.909,0,0,0,4.43-1.168,5,5,0,0,0,2.239-2.58,7.214,7.214,0,0,0,.487-3.5,6.585,6.585,0,0,0-1.217-3.213,3.875,3.875,0,0,0-2.872-1.606,26.022,26.022,0,0,0-3.894-.1q-1.947.1-3.991.1Z" transform="translate(1596.304 1388.224)" fill="#fff"/>
  </g>
</svg>
