<?xml version="1.0" encoding="UTF-8"?>
<svg xmlns="http://www.w3.org/2000/svg" version="1.1" viewBox="0 0 79 95.7">
  <defs>
    <style>
      .cls-1 {
        fill: #fff;
      }
    </style>
  </defs>
  <!-- Generator: Adobe Illustrator 28.7.1, SVG Export Plug-In . SVG Version: 1.2.0 Build 142)  -->
  <g>
    <g id="Camada_1">
      <path class="cls-1" d="M39.9,67.4c-.8.5-1.7,1.1-2.5,1.6-9.8-5.4-30.6-15.8-32.5-16.7-1.8-.9-5.3-2.4-4.9-5.6.6-4.5,8.4-14.4,11.8-18.5C29.8,6.2,37.9-.7,43.3,0c5.7.8,8.9,6.7,9.3,34.3-3.2-1-6.7-2-10.5-2.9-.3-4-1-10.1-1.4-12.2-.3-2.4-.8-3.3-1.7-3.4-1-.1-3.7,2.4-6.1,4.8l-7.5,7.6c-2.8-.2-4.7.4-5.8,1.8-.9,1.4-1.1,3-.5,4.5l-4.4,4.4c-3.8,3.8-7.7,6.9-8,8.4-.2,1.2,1.7,2.5,4.5,4.2,6.7,3.9,23,12.8,28.7,15.9ZM65.2,39.8c-6.4-2.2-22.1-8.1-38.7-10.3-5.7-.7-8,1.3-5.7,6.7,2.4,5.4,8.4,14.4,14.6,21.1,6.3,6.7,13.1,8.6,15.3-1.8,0-.4.1-.7.2-1.1.5-2.5.9-5,1.1-7.5-2.8-1.3-5.9-2.6-9.1-3.9.2,2.4.5,6.5.6,9.7v1.2c.2,5.1-1.6,5.1-4.5,3-3.4-2.4-13.8-16.2-15-22.3,0-.4.1-.4.3-.3h.3c2.4,1,10.2,4.1,18.1,7.5,3.2,1.4,6.4,2.7,9.2,4,2.9,1.3,5.3,2.5,7.2,3.5,3.4,1.8,4.8,3.1,3.3,4.6-7.2,7.3-32.1,17.6-40.8,30.4h0c-.1.3-.2.4-.3.6h0c-.6,1.3-1.1,2.6-1.2,3.9-.4,2.8,1.1,5.3,5.1,6.4,1.1.3,2.2.5,3.4.6h.7c7.7.4,27.7-4,33.8-6.7,6.1-2.7,4.4-5.6,2.6-7-1.4-1.1-8.4-5-11.7-6.9l-2.5,1.6c3.3,1.9,6.4,4,9.4,6.3.5.4.2.9-.5.9h-.6c-5.5.4-15.9,1.1-20.8,1.4-.7,0-1.5,0-2,.1,1-.9,2.2-1.8,3.3-2.6,10.4-7.3,27.9-17.6,32.9-22.1,3.8-3.3,14.1-13.3-8.1-21Z"/>
    </g>
  </g>
</svg>