<svg xmlns="http://www.w3.org/2000/svg" xmlns:xlink="http://www.w3.org/1999/xlink" width="128.44" height="128.441" viewBox="0 0 128.44 128.441">
  <defs>
    <linearGradient id="linear-gradient" x1="0.06" y1="0.06" x2="0.94" y2="0.94" gradientUnits="objectBoundingBox">
      <stop offset="0" stop-color="#ffc200"/>
      <stop offset="1" stop-color="#ff9400"/>
    </linearGradient>
  </defs>
  <g id="Grupo_98" data-name="Grupo 98" transform="translate(-7927.602 -2584.846)">
    <rect id="Retângulo_31" data-name="Retângulo 31" width="128.441" height="128.441" rx="26.33" transform="translate(7927.602 2584.846)" fill="url(#linear-gradient)"/>
    <path id="Caminho_228" data-name="Caminho 228" d="M-2.623-28.576q1.405-.187,2.577-.234t2.483-.141Q3-38.882,3.092-48.157t.562-18.27q3.56,0,6.933-.047t6.839.047q1.312.094,1.64.656a4.276,4.276,0,0,1,.234,2.155q-.094,1.405-.187,3.607t-.187,4.591q-.094,2.389-.187,4.638t-.187,3.654q-.375,5.9-.656,11.758T17.427-23.61V-4.778A8.885,8.885,0,0,1,17.286-3a1.935,1.935,0,0,1-.468.984,1.751,1.751,0,0,1-1.031.422A14.357,14.357,0,0,1,13.96-1.5H9.791q-2.108,0-4.263-.094a5.465,5.465,0,0,1-3.279-.843q-.843-.75-.843-3.092v-12.18q-2.249.187-4.169.234t-3.795.234q-2.342.187-4.685.468t-4.685.468a3.93,3.93,0,0,1-2.436-.234q-.562-.422-.562-2.3,0-3,.094-5.949t.187-5.949q.094-3.373.187-7.683t.234-8.76q.141-4.45.234-8.76t.187-7.776a16.751,16.751,0,0,1,.234-1.827,2.349,2.349,0,0,1,.515-1.124,1.885,1.885,0,0,1,1.077-.562,10.276,10.276,0,0,1,1.921-.141q2.53,0,5.2-.141t5.387-.234q2.155,0,2.717.7a4.344,4.344,0,0,1,.375,2.858q-.187,4.216-.562,8.807t-.7,9.182Q-1.968-41.6-2.3-37.1T-2.623-28.576Z" transform="translate(7991.824 2682.888)" fill="#fff"/>
  </g>
</svg>
