<svg xmlns="http://www.w3.org/2000/svg" xmlns:xlink="http://www.w3.org/1999/xlink" width="128.441" height="128.44" viewBox="0 0 128.441 128.44">
  <defs>
    <linearGradient id="linear-gradient" x1="0.06" y1="0.06" x2="0.94" y2="0.94" gradientUnits="objectBoundingBox">
      <stop offset="0" stop-color="#ffc200"/>
      <stop offset="1" stop-color="#ff9400"/>
    </linearGradient>
  </defs>
  <g id="Grupo_95" data-name="Grupo 95" transform="translate(-117.384 -4554.866)">
    <rect id="Retângulo_58" data-name="Retângulo 58" width="128.441" height="128.441" rx="26.33" transform="translate(117.384 4554.866)" fill="url(#linear-gradient)"/>
    <path id="Caminho_225" data-name="Caminho 225" d="M-5.059-53.685q-1.031.094-1.827.094a14.847,14.847,0,0,0-1.64.094,4.094,4.094,0,0,0-.89.094,4.094,4.094,0,0,1-.89.094,17.734,17.734,0,0,1-2.2.187,1.777,1.777,0,0,1-1.218-.375,1.926,1.926,0,0,1-.562-1.124,12.486,12.486,0,0,1-.141-2.155q0-1.686.047-3.326t-.047-3.232a2.884,2.884,0,0,1,.422-1.593,2.059,2.059,0,0,1,1.452-.843,15.71,15.71,0,0,0,3.467-1.5,20.18,20.18,0,0,1,7.261-2.436A33.771,33.771,0,0,1,5.715-69.8q1.5.187,2.951.281t2.951.281a3.736,3.736,0,0,1,2.389.8,4.115,4.115,0,0,1,.515,2.483q-.094,2.249-.187,4.544t-.281,4.638q-.375,4.4-.75,9.838t-.656,11.056q-.281,5.621-.422,11.009t-.141,9.791V-10.4q0,2.249-.094,4.5a3.981,3.981,0,0,1-.8,2.436,4.532,4.532,0,0,1-2.483.75,38.212,38.212,0,0,1-6.465.562A47.665,47.665,0,0,1-4.31-2.623a5.51,5.51,0,0,1-2.155-.515q-.468-.328-.468-1.921,0-5.528.281-11.852T-6-29.7q.375-6.465.656-12.648T-5.059-53.685Z" transform="translate(181.605 4652.908)" fill="#fff"/>
  </g>
</svg>
