<svg xmlns="http://www.w3.org/2000/svg" xmlns:xlink="http://www.w3.org/1999/xlink" width="623.509" height="453.525" viewBox="0 0 623.509 453.525">
  <defs>
    <linearGradient id="linear-gradient" x1="-0.024" y1="0.693" x2="1.024" y2="0.307" gradientUnits="objectBoundingBox">
      <stop offset="0" stop-color="#841655"/>
      <stop offset="1" stop-color="#43387c"/>
    </linearGradient>
  </defs>
  <g id="Grupo_93" data-name="Grupo 93" transform="translate(-158.644 -239.679)">
    <rect id="Retângulo_74" data-name="Retângulo 74" width="623.509" height="453.525" rx="95.924" transform="translate(158.644 239.679)" fill="url(#linear-gradient)"/>
    <g id="Grupo_92" data-name="Grupo 92">
      <path id="Caminho_221" data-name="Caminho 221" d="M406.968,566.638a125.916,125.916,0,0,1-14.042,2.983c-4.653.7-8.2,1.3-10.65,1.787q2.127,17.556,3.55,33.124t3.01,30.746q.518,5.555-.856,7.693t-6.8,3.11q-5.9.8-11.873,1.836t-12.294,1.9q-4.615.376-5.741-.578t-1.989-5.716q-9.04-50.841-15.431-96.037t-13.48-86.529q-.968-5.5.045-7.1t6.027-2.274l32.31-4.331c3.34-.446,5.487-.244,6.41.608s1.643,3.119,2.139,6.8q3.658,27.355,5.7,42.6t3.182,22.917c.766,5.115,1.276,8.421,1.554,9.93s.465,2.671.578,3.467l22.7-3.043q-1.813-10.262-3.228-19.12-1.407-8.838-2.657-16.5t-2.409-14.71c-.788-4.7-1.478-9.367-2.1-14.005-.413-3.04-.233-5.059.518-6.061s2.446-1.673,5.058-2.022q8.016-1.56,15.874-2.616t15.934-2.135c3.054-.413,5.051,1.2,5.974,4.811.323,1.272.675,2.563,1.081,3.9a11.829,11.829,0,0,1,.457,4.21q4.11,37.326,8.061,73.447t8.841,72.61c.533,4,.436,6.537-.315,7.614s-2.837,2.008-6.282,2.8q-4.965,1.16-10.072,1.962-5.123.812-10.605,1.3c-2.934.232-4.818-.053-5.666-.833s-1.554-2.755-2.132-5.941q-1.114-4.981-1.989-9.877t-1.959-9.633q-1.53-8.094-3.182-16.3T406.968,566.638Z" fill="#fff"/>
      <path id="Caminho_222" data-name="Caminho 222" d="M570.118,486.74a60.232,60.232,0,0,0-1.351-10.935q-6.506-28.7-31.852-38.746a56.746,56.746,0,0,0-14.1-3.235,55.444,55.444,0,0,0-14.7.5q-13.723,2.094-27.312,4.27t-27.282,4.511a33.326,33.326,0,0,0-4.285,1.179,4.058,4.058,0,0,0-2.117,1.635,5.5,5.5,0,0,0-.615,2.887,43.732,43.732,0,0,0,.443,4.953q1.79,11.736,3.827,23.555,2.016,11.832,3.821,23.552,4.2,28.032,8.6,55.911t9.486,57.5c.361,2.724.923,4.39,1.666,5.025q1.137.951,5.314.634l24.663-3.306c2.747-.529,4.42-1.242,5.043-2.143s.886-2.807.788-5.73q-.787-9.164-1.613-17.859t-1.584-17.626q-.562-7.5-1.329-14.853t-1.351-15.09a74.505,74.505,0,0,0,18.854-1.914,77.492,77.492,0,0,0,20.744-7.663A60.136,60.136,0,0,0,561.3,519.568q7.487-8.832,8.616-21.93A103.083,103.083,0,0,0,570.118,486.74ZM525.8,495.852a15.233,15.233,0,0,1-5.922,6.409,28.21,28.21,0,0,1-8.984,3.411,43.058,43.058,0,0,1-9.764.935q-1.092-8.151-1.576-15.056c-.323-4.593-.8-9.3-1.441-14.1q4.356-.585,8.278-1.234a48.25,48.25,0,0,1,7.685-.664,11.426,11.426,0,0,1,8,2.469,13.172,13.172,0,0,1,4.211,7.378Q527.808,491.8,525.8,495.852Z" fill="#fff"/>
      <path id="Caminho_223" data-name="Caminho 223" d="M701.739,469.1a61.013,61.013,0,0,0-1.351-10.936q-6.507-28.7-31.852-38.746a56.741,56.741,0,0,0-14.1-3.234,55.069,55.069,0,0,0-14.7.5q-13.723,2.088-27.319,4.27t-27.274,4.511a33,33,0,0,0-4.286,1.178,4.062,4.062,0,0,0-2.116,1.636,5.344,5.344,0,0,0-.616,2.886,43.726,43.726,0,0,0,.443,4.954q1.8,11.736,3.82,23.555,2.039,11.826,3.828,23.551,4.2,28.034,8.6,55.911t9.479,57.5c.368,2.725.923,4.391,1.674,5.025s2.522.845,5.306.635l24.67-3.307q4.109-.793,5.043-2.143c.623-.893.878-2.807.789-5.73q-.789-9.164-1.614-17.859t-1.584-17.626q-.562-7.5-1.328-14.853T635.9,525.693a74.488,74.488,0,0,0,18.845-1.918,77.339,77.339,0,0,0,20.753-7.659,60.279,60.279,0,0,0,17.427-14.189Q700.4,493.1,701.536,480A105.559,105.559,0,0,0,701.739,469.1Zm-44.327,9.111a15.139,15.139,0,0,1-5.914,6.406,28.233,28.233,0,0,1-8.991,3.415,42.938,42.938,0,0,1-9.757.934q-1.092-8.151-1.576-15.055c-.315-4.593-.8-9.307-1.441-14.1q4.358-.579,8.271-1.231a48.581,48.581,0,0,1,7.693-.664,11.394,11.394,0,0,1,7.993,2.466,13.136,13.136,0,0,1,4.21,7.381Q659.42,474.163,657.412,478.214Z" fill="#fff"/>
    </g>
    <text id="quiz" transform="translate(232.815 396.102)" fill="#fff" font-size="122.932" font-family="Hello-Roti, Hello Roti"><tspan x="0" y="0">quiz</tspan></text>
  </g>
</svg>
