<svg xmlns="http://www.w3.org/2000/svg" xmlns:xlink="http://www.w3.org/1999/xlink" width="357.994" height="123.045" viewBox="0 0 357.994 123.045">
  <defs>
    <linearGradient id="linear-gradient" x1="0.194" y1="-0.391" x2="0.806" y2="1.391" gradientUnits="objectBoundingBox">
      <stop offset="0" stop-color="#ffc200"/>
      <stop offset="1" stop-color="#ff9400"/>
    </linearGradient>
  </defs>
  <g id="Grupo_94" data-name="Grupo 94" transform="translate(-1704.474 -5004.535)">
    <rect id="Retângulo_59" data-name="Retângulo 59" width="357.994" height="123.045" rx="36.294" transform="translate(1704.474 5004.535)" fill="url(#linear-gradient)"/>
    <path id="Caminho_224" data-name="Caminho 224" d="M-108.694-49.026q2.72-.136,5.3-.272l5.168-.272q3.468-.2,6.9-.34t6.9-.34a2.854,2.854,0,0,1,1.36.238q.408.238.34,1.122,0,2.448-.17,4.9t-.306,4.964a1.3,1.3,0,0,1-1.5,1.224q-1.36-.136-2.754-.2t-2.822-.068q-1.36-.068-2.686-.034t-2.754.034a33.787,33.787,0,0,0-.2,4.794q.068,2.414.136,4.862h11.084a23.274,23.274,0,0,1,.136,3.468q-.068,1.564-.136,2.788-.2.748-.782.816a9.6,9.6,0,0,1-1.122.068q-2.312.068-4.624.1t-4.488.17v7.956q1.088,0,2.482-.136t2.856-.306q1.462-.17,2.89-.306t2.516-.2q1.224-.136,1.6.238a2.508,2.508,0,0,1,.374,1.666v9.18q0,1.292-.306,1.564a3.094,3.094,0,0,1-1.6.34h-7.14q-3.536,0-7.14.068-1.768,0-3.5.1t-3.5.1a2.394,2.394,0,0,1-1.564-.238,2.634,2.634,0,0,1-.476-1.53q-.136-12.784-.306-24.139T-108.694-49.026Zm43.246,24.207q.2,6.12.272,11.934t.068,11.662q-2.992.408-5.814.51T-76.6-.748a2.4,2.4,0,0,1-1.53-.34,2.276,2.276,0,0,1-.442-1.5q-.136-1.5-.17-2.958t-.034-3.026q-.068-3.808-.034-7.548t-.034-7.616Q-78.911-28.9-79.013-34t-.238-10.2a4.031,4.031,0,0,1,.17-1.564q.17-.272,1.462-.408a11.269,11.269,0,0,1,1.972-.1q1.02.034,2.04.034,1.564,0,3.2.034t3.2.1a18.9,18.9,0,0,1,2.958.17,3.277,3.277,0,0,1,1.5.578,2.548,2.548,0,0,1,.782,1.19q.272.782.816,2.074,2.244,4.556,4.216,9.01a61.843,61.843,0,0,0,4.556,8.466q0-1.7.068-3.06a17.132,17.132,0,0,0-.068-2.652q-.136-4.148-.374-8.16t-.374-8.092a1.954,1.954,0,0,1,.2-1.292,1.741,1.741,0,0,1,1.224-.408h10.54a1.324,1.324,0,0,1,1.122.408,2.029,2.029,0,0,1,.306,1.224v5.3q-.136,8.228-.238,16.455t-.238,16.455q0,1.36.034,2.72t.034,2.788a2.09,2.09,0,0,1-.34,1.462,2.522,2.522,0,0,1-1.428.374q-1.836,0-3.638-.1a17.069,17.069,0,0,0-3.57.17,3.465,3.465,0,0,1-2.72-.34,6.5,6.5,0,0,1-1.768-2.108q-2.516-5.032-5.168-9.894t-5.372-9.894a6.868,6.868,0,0,0-.952-1.564Zm28.559-20.535a23.135,23.135,0,0,1,5.576-2.278q2.788-.714,5.644-1.462a1.932,1.932,0,0,1,1.462.306,2.45,2.45,0,0,1,.918,1.462,115.164,115.164,0,0,1,3.944,12.988q1.564,6.528,3.468,12.988a7.986,7.986,0,0,0,.34.952,2.755,2.755,0,0,0,.748.952q2.584-8.228,5.1-16.319t5.1-16.319q3.128.068,5.882.306T7.038-51a4.1,4.1,0,0,1,1.768.748q.408.408-.136,1.7-.544,1.564-1.19,2.992T6.154-42.566Q3.5-35.223.782-27.879T-4.658-13.26Q-5.746-10.2-6.732-7.378T-8.67-1.564A2.218,2.218,0,0,1-10.914.272q-2.04.068-4.012.034t-3.944.1A1.583,1.583,0,0,1-20.331-.1a10.3,10.3,0,0,1-.85-1.326l-2.992-7.616q-1.5-3.808-2.992-7.684-2.38-6.868-4.692-13.668t-4.624-13.668a4.822,4.822,0,0,1-.2-.612Q-36.753-44.946-36.889-45.354Zm61.878-4.9q1.36,0,1.7.408a3.043,3.043,0,0,1,.34,1.768q-.476,10.676-.68,21.011t-.2,20.807q0,.884.034,1.666t.034,1.53A3.789,3.789,0,0,1,25.7-.782a2.731,2.731,0,0,1-2.074.714Q21.725,0,19.787,0H16.013a2.312,2.312,0,0,1-1.428-.272,2.693,2.693,0,0,1-.34-1.5q-.68-11.56-.952-22.575t-.68-22.031v-1.02a3.662,3.662,0,0,1,.544-2.244,3.458,3.458,0,0,1,2.244-.476q3.2,0,5.372-.1T24.989-50.25ZM53.208-18.971q-1.7.136-3.162.2t-3.162.2q-.136,3.264-.034,7.752t.442,9.18Q47.36-.408,47.054-.1a2.581,2.581,0,0,1-1.6.306q-2.448.068-4.828.034T35.937.2Q34.645.2,33.931.17a1.664,1.664,0,0,1-1.054-.34,1.522,1.522,0,0,1-.408-1.02Q32.4-1.9,32.333-3.2q-.136-3.264-.272-6.63t-.34-6.7q-.272-9.316-.408-18.767a30.759,30.759,0,0,1,.306-4.42,13.613,13.613,0,0,1,1.326-4.148,12.439,12.439,0,0,1,3.094-4.352,12.949,12.949,0,0,1,4.114-2.448,18.156,18.156,0,0,1,4.76-1.02,47.577,47.577,0,0,1,5.1-.136q2.448.136,4.862.306a20.248,20.248,0,0,1,4.522.816A11.328,11.328,0,0,1,63.17-48.72a8.286,8.286,0,0,1,2.55,3.706,25.6,25.6,0,0,1,1.6,5.746,46.1,46.1,0,0,1,.51,5.95q.068,2.312.034,4.59t-.034,4.522q.136,5.1.238,10.268T68.3-3.6a16.33,16.33,0,0,1-.068,1.7,1.492,1.492,0,0,1-.374.918,1.867,1.867,0,0,1-.952.442q-.646.136-1.87.272Q64.156-.2,63.374-.2H61.64q-1.5.136-3.06.238T55.52.2a3.065,3.065,0,0,1-1.6-.272q-.374-.272-.442-1.5-.136-5.1-.238-9.248T53.208-18.971ZM46.476-29.035q1.836-.136,3.57-.1t3.162.034q0-2.244.034-4.726t-.034-4.658a2.051,2.051,0,0,0-.476-1.258,2.69,2.69,0,0,0-1.02-.68,4.183,4.183,0,0,0-1.326-.272q-.714-.034-1.326-.034a2.334,2.334,0,0,0-2.516,2.244,34.8,34.8,0,0,0-.238,4.59Q46.34-31.619,46.476-29.035Zm50.794,6.46q.408.68.68,1.088t.612.952l4.76,7.072q2.38,3.536,4.76,7a3.586,3.586,0,0,1,.748,1.088q.68.952.51,1.462t-1.326.714q-2.584.612-5.168,1.19t-5.3,1.054a.907.907,0,0,1-.782-.1,5.18,5.18,0,0,1-.782-.51,1.447,1.447,0,0,1-.374-.612q-.1-.34-.238-.68-2.176-4.216-4.284-8.4t-4.42-8.4q-.068,1.632-.1,3.3t-.1,3.366q-.068,2.38-.2,4.862T85.983-3.2a3.314,3.314,0,0,1-.476,1.938,2.748,2.748,0,0,1-1.9.442q-1.768.068-3.468.068H76.667a3.074,3.074,0,0,1-1.972-.51,3.468,3.468,0,0,1-.476-2.006q-.34-9.18-.714-18.155t-.374-18.155q0-2.176-.136-4.454t-.136-4.454a8.2,8.2,0,0,1,.068-1.19,1.341,1.341,0,0,1,.272-.68,1.145,1.145,0,0,1,.612-.34q.408-.1,1.156-.238t1.394-.238a8.951,8.951,0,0,1,1.394-.1q6.256-.34,12.716-.408a23.325,23.325,0,0,1,4.862.374,30.9,30.9,0,0,1,4.726,1.258,13.29,13.29,0,0,1,5.474,3.638,14.5,14.5,0,0,1,3.06,5.372,16.2,16.2,0,0,1,.68,6.086,14.344,14.344,0,0,1-1.666,5.78,13.063,13.063,0,0,1-4.012,4.488A12.222,12.222,0,0,1,97.271-22.575Zm-9.724-9.18q1.768.136,3.366.2a5.524,5.524,0,0,0,3.094-.816,3.489,3.489,0,0,0,1.564-1.8,5.039,5.039,0,0,0,.34-2.448,4.6,4.6,0,0,0-.85-2.244,2.707,2.707,0,0,0-2.006-1.122,18.175,18.175,0,0,0-2.72-.068q-1.36.068-2.788.068Z" transform="translate(1883.472 5093.416)" fill="#fff"/>
  </g>
</svg>
