<?xml version="1.0" encoding="UTF-8"?>
<svg xmlns="http://www.w3.org/2000/svg" version="1.1" viewBox="0 0 285.3 285.3">
  <defs>
    <style>
      .cls-1 {
        fill: #fff;
      }

      .cls-2 {
        fill: #f8d029;
      }

      .cls-3 {
        fill: #df2f2e;
      }

      .cls-4 {
        fill: #e5a228;
      }
    </style>
  </defs>
  <!-- Generator: Adobe Illustrator 28.7.1, SVG Export Plug-In . SVG Version: 1.2.0 Build 142)  -->
  <g>
    <g id="Camada_1">
      <g>
        <path class="cls-2" d="M285.3,142.7c0,2,0,4-.1,6-3.1,74-62.5,133.4-136.5,136.5-2,0-4,.1-6,.1C63.9,285.3,0,221.4,0,142.7S63.9,0,142.7,0s142.7,63.9,142.7,142.7Z"/>
        <path class="cls-4" d="M285.2,148.7c-3.1,74-62.5,133.4-136.5,136.5-38.7-38.7-74.1-74.1-74.1-74.1L211.1,74.6c0,0,35.4,35.4,74.1,74.1Z"/>
        <path class="cls-3" d="M215.9,205.5c2.9,8.9,7.5,17.2,13.8,24.1-12.1,1.1-24.4-.7-35.7-5.2-14.9,9.3-32.5,14.8-51.3,14.8-53.3,0-96.5-43.2-96.5-96.5s43.2-96.5,96.5-96.5,96.5,43.2,96.5,96.5-8.8,46-23.3,62.9Z"/>
        <path class="cls-1" d="M155.4,84l-7.6,87.9c0,1-.9,1.8-1.9,1.8h-6.5c-1,0-1.8-.8-1.9-1.8l-7.4-85.8c0-1.1.8-2.1,1.9-2.1h23.4Z"/>
        <rect class="cls-1" x="135.8" y="187.5" width="13.7" height="13.7" rx="1.9" ry="1.9"/>
      </g>
    </g>
  </g>
</svg>