<svg xmlns="http://www.w3.org/2000/svg" xmlns:xlink="http://www.w3.org/1999/xlink" width="357.994" height="123.045" viewBox="0 0 357.994 123.045">
  <defs>
    <linearGradient id="linear-gradient" x1="0.194" y1="-0.391" x2="0.806" y2="1.391" gradientUnits="objectBoundingBox">
      <stop offset="0" stop-color="#ffc200"/>
      <stop offset="1" stop-color="#ff9400"/>
    </linearGradient>
  </defs>
  <g id="Grupo_95" data-name="Grupo 95" transform="translate(-1361.095 -1385.82)">
    <g id="Grupo_89" data-name="Grupo 89" transform="translate(0 -1785.03)">
      <rect id="Retângulo_70" data-name="Retângulo 70" width="357.994" height="123.045" rx="36.294" transform="translate(1361.095 3170.849)" fill="url(#linear-gradient)"/>
      <path id="Caminho_226" data-name="Caminho 226" d="M-94.755-50.25q1.36,0,1.7.408a3.043,3.043,0,0,1,.34,1.768q-.476,10.676-.68,21.011t-.2,20.807q0,.884.034,1.666t.034,1.53a3.789,3.789,0,0,1-.51,2.278,2.731,2.731,0,0,1-2.074.714Q-98.019,0-99.956,0h-3.774a2.312,2.312,0,0,1-1.428-.272,2.693,2.693,0,0,1-.34-1.5q-.68-11.56-.952-22.575t-.68-22.031v-1.02a3.662,3.662,0,0,1,.544-2.244,3.458,3.458,0,0,1,2.244-.476q3.2,0,5.372-.1T-94.755-50.25Zm19.311,25.431q.2,6.12.272,11.934T-75.1-1.224q-2.992.408-5.814.51t-5.678-.034a2.4,2.4,0,0,1-1.53-.34,2.276,2.276,0,0,1-.442-1.5q-.136-1.5-.17-2.958t-.034-3.026q-.068-3.808-.034-7.548t-.034-7.616Q-88.907-28.9-89.009-34t-.238-10.2a4.031,4.031,0,0,1,.17-1.564q.17-.272,1.462-.408a11.269,11.269,0,0,1,1.972-.1q1.02.034,2.04.034,1.564,0,3.2.034t3.2.1a18.9,18.9,0,0,1,2.958.17,3.277,3.277,0,0,1,1.5.578,2.548,2.548,0,0,1,.782,1.19q.272.782.816,2.074,2.244,4.556,4.216,9.01a61.843,61.843,0,0,0,4.556,8.466q0-1.7.068-3.06a17.132,17.132,0,0,0-.068-2.652q-.136-4.148-.374-8.16t-.374-8.092a1.954,1.954,0,0,1,.2-1.292,1.741,1.741,0,0,1,1.224-.408h10.54a1.324,1.324,0,0,1,1.122.408,2.029,2.029,0,0,1,.306,1.224v5.3q-.136,8.228-.238,16.455t-.238,16.455q0,1.36.034,2.72t.034,2.788a2.09,2.09,0,0,1-.34,1.462,2.522,2.522,0,0,1-1.428.374q-1.836,0-3.638-.1a17.069,17.069,0,0,0-3.57.17,3.465,3.465,0,0,1-2.72-.34,6.5,6.5,0,0,1-1.768-2.108Q-66.128-8.5-68.78-13.362t-5.372-9.894a6.868,6.868,0,0,0-.952-1.564ZM-33.217-50.25q1.36,0,1.7.408a3.043,3.043,0,0,1,.34,1.768q-.476,10.676-.68,21.011t-.2,20.807q0,.884.034,1.666t.034,1.53A3.789,3.789,0,0,1-32.5-.782a2.731,2.731,0,0,1-2.074.714Q-36.481,0-38.419,0h-3.774A2.312,2.312,0,0,1-43.62-.272a2.693,2.693,0,0,1-.34-1.5q-.68-11.56-.952-22.575t-.68-22.031v-1.02a3.662,3.662,0,0,1,.544-2.244,3.458,3.458,0,0,1,2.244-.476q3.2,0,5.372-.1T-33.217-50.25Zm17.883,29.783a8.143,8.143,0,0,0,2.074,4.488,3.938,3.938,0,0,0,3.06,1.224,4.4,4.4,0,0,0,2.924-1.632,7.194,7.194,0,0,0,1.6-4.148q0-1.7,1.632-1.7,2.108-.068,4.182-.17t4.182-.17a2.508,2.508,0,0,1,1.666.374,2.963,2.963,0,0,1,.51,1.666,28.669,28.669,0,0,1-.034,6.392A15.075,15.075,0,0,1,4.318-8.092a14.524,14.524,0,0,1-8.3,6.528,19.983,19.983,0,0,1-8.3.918,15.408,15.408,0,0,1-7.684-3.23,26.764,26.764,0,0,1-2.21-2.04,12.183,12.183,0,0,1-1.8-2.38,26.933,26.933,0,0,1-2.516-6.494,40.618,40.618,0,0,1-1.19-7.718A44.069,44.069,0,0,1-27.4-30.6a32.858,32.858,0,0,1,1.87-7.65,23.783,23.783,0,0,1,3.57-6.358,15,15,0,0,1,5.338-4.284,16.7,16.7,0,0,1,5.372-1.462,26.491,26.491,0,0,1,5.508.1,21.069,21.069,0,0,1,3.332.782,15.382,15.382,0,0,1,3.06,1.394,7.527,7.527,0,0,1,2.618,2.516,13.868,13.868,0,0,1,1.53,3.332,17.822,17.822,0,0,1,.714,3.638,26.567,26.567,0,0,1,.1,3.5,2.1,2.1,0,0,1-.374,1.462,2.073,2.073,0,0,1-1.326.442q-1.9.2-3.842.272l-3.842.136a2.72,2.72,0,0,1-1.666-.238,3.37,3.37,0,0,1-.714-1.6,4.476,4.476,0,0,0-.952-2.006A3.639,3.639,0,0,0-8.67-37.7a3.581,3.581,0,0,0-1.9-.1,4.8,4.8,0,0,0-2.04,1.02,9.083,9.083,0,0,0-2.176,2.89,12.322,12.322,0,0,0-1.02,3.5,23.8,23.8,0,0,0-.136,5.066Q-15.741-22.847-15.333-20.467ZM23.153-50.25q1.36,0,1.7.408a3.043,3.043,0,0,1,.34,1.768q-.476,10.676-.68,21.011t-.2,20.807q0,.884.034,1.666t.034,1.53a3.789,3.789,0,0,1-.51,2.278,2.731,2.731,0,0,1-2.074.714Q19.889,0,17.951,0H14.177A2.312,2.312,0,0,1,12.75-.272a2.693,2.693,0,0,1-.34-1.5q-.68-11.56-.952-22.575t-.68-22.031v-1.02a3.662,3.662,0,0,1,.544-2.244,3.458,3.458,0,0,1,2.244-.476q3.2,0,5.372-.1T23.153-50.25ZM51.372-18.971q-1.7.136-3.162.2t-3.162.2q-.136,3.264-.034,7.752t.442,9.18q.068,1.224-.238,1.53A2.581,2.581,0,0,1,43.62.2q-2.448.068-4.828.034T34.1.2Q32.809.2,32.095.17a1.664,1.664,0,0,1-1.054-.34,1.522,1.522,0,0,1-.408-1.02Q30.565-1.9,30.5-3.2q-.136-3.264-.272-6.63t-.34-6.7q-.272-9.316-.408-18.767a30.759,30.759,0,0,1,.306-4.42,13.613,13.613,0,0,1,1.326-4.148A12.439,12.439,0,0,1,34.2-48.21a12.949,12.949,0,0,1,4.114-2.448,18.156,18.156,0,0,1,4.76-1.02,47.577,47.577,0,0,1,5.1-.136q2.448.136,4.862.306a20.248,20.248,0,0,1,4.522.816,11.328,11.328,0,0,1,3.774,1.972,8.286,8.286,0,0,1,2.55,3.706,25.6,25.6,0,0,1,1.6,5.746,46.1,46.1,0,0,1,.51,5.95q.068,2.312.034,4.59t-.034,4.522q.136,5.1.238,10.268T66.468-3.6A16.33,16.33,0,0,1,66.4-1.9a1.492,1.492,0,0,1-.374.918,1.867,1.867,0,0,1-.952.442q-.646.136-1.87.272Q62.32-.2,61.538-.2H59.8q-1.5.136-3.06.238T53.684.2a3.065,3.065,0,0,1-1.6-.272q-.374-.272-.442-1.5-.136-5.1-.238-9.248T51.372-18.971ZM44.64-29.035q1.836-.136,3.57-.1t3.162.034q0-2.244.034-4.726t-.034-4.658a2.051,2.051,0,0,0-.476-1.258,2.69,2.69,0,0,0-1.02-.68A4.183,4.183,0,0,0,48.55-40.7q-.714-.034-1.326-.034a2.334,2.334,0,0,0-2.516,2.244,34.8,34.8,0,0,0-.238,4.59Q44.5-31.619,44.64-29.035Zm50.794,6.46q.408.68.68,1.088t.612.952l4.76,7.072q2.38,3.536,4.76,7a3.586,3.586,0,0,1,.748,1.088q.68.952.51,1.462t-1.326.714q-2.584.612-5.168,1.19t-5.3,1.054a.907.907,0,0,1-.782-.1,5.18,5.18,0,0,1-.782-.51,1.447,1.447,0,0,1-.374-.612q-.1-.34-.238-.68-2.176-4.216-4.284-8.4t-4.42-8.4q-.068,1.632-.1,3.3t-.1,3.366q-.068,2.38-.2,4.862T84.147-3.2a3.314,3.314,0,0,1-.476,1.938,2.748,2.748,0,0,1-1.9.442Q80-.748,78.3-.748H74.831a3.074,3.074,0,0,1-1.972-.51,3.468,3.468,0,0,1-.476-2.006q-.34-9.18-.714-18.155T71.3-39.575q0-2.176-.136-4.454t-.136-4.454a8.2,8.2,0,0,1,.068-1.19,1.341,1.341,0,0,1,.272-.68,1.145,1.145,0,0,1,.612-.34q.408-.1,1.156-.238t1.394-.238a8.951,8.951,0,0,1,1.394-.1q6.256-.34,12.716-.408A23.325,23.325,0,0,1,93.5-51.3a30.9,30.9,0,0,1,4.726,1.258,13.29,13.29,0,0,1,5.474,3.638,14.5,14.5,0,0,1,3.06,5.372,16.2,16.2,0,0,1,.68,6.086,14.344,14.344,0,0,1-1.666,5.78,13.063,13.063,0,0,1-4.012,4.488A12.222,12.222,0,0,1,95.435-22.575Zm-9.724-9.18q1.768.136,3.366.2a5.524,5.524,0,0,0,3.094-.816,3.489,3.489,0,0,0,1.564-1.8,5.039,5.039,0,0,0,.34-2.448,4.6,4.6,0,0,0-.85-2.244,2.707,2.707,0,0,0-2.006-1.122,18.175,18.175,0,0,0-2.72-.068q-1.36.068-2.788.068Z" transform="translate(1540.092 3259.73)" fill="#fff"/>
    </g>
  </g>
</svg>
