<?xml version="1.0" encoding="UTF-8"?>
<svg xmlns="http://www.w3.org/2000/svg" xmlns:xlink="http://www.w3.org/1999/xlink" version="1.1" viewBox="0 0 394.9 95.7">
  <defs>
    <style>
      .cls-1 {
        filter: url(#drop-shadow-1);
      }

      .cls-2 {
        fill: #fff;
      }
    </style>
    <filter id="drop-shadow-1" x="-12" y="-12.2" width="419" height="120" filterUnits="userSpaceOnUse">
      <feOffset dx="0" dy="0"/>
      <feGaussianBlur result="blur" stdDeviation="4"/>
      <feFlood flood-color="#010101" flood-opacity=".8"/>
      <feComposite in2="blur" operator="in"/>
      <feComposite in="SourceGraphic"/>
    </filter>
  </defs>
  <!-- Generator: Adobe Illustrator 28.7.1, SVG Export Plug-In . SVG Version: 1.2.0 Build 142)  -->
  <g>
    <g id="Camada_1">
      <g class="cls-1">
        <path class="cls-2" d="M22.1,52.1h-5.9L0,94.6h6l4.8-13h16.2l4.6,13h5.9l-15.5-42.5ZM12.6,76.8l6.5-17.6,6.1,17.6h-12.6Z"/>
        <path class="cls-2" d="M59.8,85.7c0,3.5-2.8,5.3-7.6,5.3s-6.5-1.1-7.9-3.6l-5.7,1c2.2,4.6,6.9,6.7,13.4,6.7s13.5-4.9,13.5-10.1-6.2-8.6-13.3-10c-3.5-.8-7.5-2-7.5-5.1s2.1-4.7,6.4-4.7c3,0,5.9,1.5,7.3,4.2l5-2.1c-2.3-4.4-7-6.2-11.8-6.2-7.5,0-12.4,3.7-12.4,9.5s5.7,8,11.2,9.2c4.7,1,9.3,2.1,9.3,5.9Z"/>
        <path class="cls-2" d="M77.4,52.2l-5.6,2.3v7.8h-5.1v4.5h5.1v20.6c0,4.2,0,7.3,6.2,7.3,1.8,0,3.5-.2,5.3-.5v-4.4c-1.1.4-2.3.6-3.6.7-2.3,0-2.3-1.6-2.3-5.4v-18.3h5.9v-4.5h-5.9v-10.1Z"/>
        <path class="cls-2" d="M88.2,62.4v32.2h5.4v-14.8c0-2.8,0-6,1.4-8.4,1.8-2.9,4.4-4,9.8-4v-5.6c-2.2,0-8,.2-11.1,6.3v-5.8h-5.5Z"/>
        <polygon class="cls-2" points="136.7 52.2 136.7 57.5 160.9 57.5 136.7 89.1 136.7 94.7 167.9 94.7 167.9 89.5 143.2 89.5 167.3 57.5 167.3 52.1 136.7 52.2"/>
        <path class="cls-2" d="M201.9,62.4v32.2h5.4v-18.3c0-2.4,0-4.8,2.4-7.2,1.6-1.6,3.9-2.5,6.2-2.4,2.9,0,6,1.4,7,4.4.4,1.7.5,3.5.3,5.3v18.2h5.4v-19.1c.1-2.2,0-4.4-.6-6.6-1.5-4.6-5.8-7.6-10.6-7.4-4.2,0-8,2.1-10.1,5.8v-4.9h-5.5Z"/>
        <path class="cls-2" d="M286,86.8c-1.4,2.8-4.3,4.4-7.5,4.2-3.6,0-9.8-2.3-9.8-12.9s.5-13,9.4-13c3.2-.2,6.2,1.6,7.5,4.6l5.1-2c-3.1-5.2-8.8-6.4-12.8-6.4-10.3,0-15.3,8.3-15.3,17.4s4.3,16.7,15.7,16.7c5,.3,9.7-2.2,12.3-6.4l-4.7-2.1Z"/>
        <path class="cls-2" d="M185.3,91.2c-7.6.1-9.9-6.7-9.8-12.1h23.2c0-2.2-.2-4.4-.6-6.5-1.9-8.1-7.6-11.4-13.5-11.4s-14.8,4.6-14.8,16.7,5.5,17.3,15,17.3,10.6-3.6,12.4-6.8l-5.3-1c-1.4,2.3-4,3.7-6.7,3.7ZM184.2,65.2c3.2,0,8.1,1.4,8.6,9.9h-17.1c.7-6.5,3.9-9.9,8.5-9.9Z"/>
        <path class="cls-2" d="M246.9,91.2c-7.6.1-9.9-6.7-9.8-12.1h23.1c0-2.2-.2-4.4-.6-6.5-1.9-8.1-7.6-11.4-13.5-11.4s-14.8,4.6-14.8,16.7,5.6,17.3,15.1,17.4c7,0,10.6-3.6,12.4-6.8l-5.2-1.1c-1.4,2.4-4,3.8-6.7,3.7ZM237.3,75.1c.6-6.5,3.9-9.9,8.5-9.8,3.2,0,8.1,1.4,8.6,9.9h-17.1Z"/>
        <path class="cls-2" d="M319.6,88.5l-.2-16.5s0-5.3-3.5-8.1c-2.8-1.9-6-2.9-9.4-2.8-5.5,0-9.2,2.2-11.1,5.7,0,.2-.2.3-.3.5l5,2.1c.5-2,2.1-4.2,6.6-4.2,7.2,0,7.2,5.6,7.2,8.9v.8l-5.1.4c-9.6.8-13,2.9-14.9,5.7-.9,1.4-1.4,3.1-1.4,4.8,0,5.4,4.7,9.2,10.9,9.2,4.2,0,8.2-1.9,10.8-5.2.1,1.6.3,3.2.6,4.8h5.6c-.8-1.4-.9-6.1-.9-6.1ZM313.1,85.7c-1.6,3.4-4.8,4.9-8.5,4.8-4,0-6.1-2.2-6.1-4.8s1-4.5,7-5.8c3.5-.8,6.4-1.2,8.5-1.5,0,4.7,0,5.5-.9,7.2Z"/>
        <path class="cls-2" d="M132,88.5l-.3-16.5s0-5.3-3.5-8.1c-2.8-1.9-6-2.9-9.4-2.8-5.5,0-9.2,2.2-11.1,5.7l-.3.5,5,2.1c.5-2,2.1-4.2,6.6-4.2,7.2,0,7.2,5.6,7.2,8.9v.8l-5.1.4c-9.6.8-13,2.9-14.9,5.7-.9,1.4-1.4,3.1-1.4,4.8,0,5.4,4.7,9.2,10.9,9.2,4.2,0,8.2-1.9,10.8-5.2.1,1.6.3,3.2.6,4.8h5.6c-.5-2-.8-4.1-.9-6.1ZM125.5,85.7c-1.6,3.4-4.8,4.9-8.5,4.8-4,0-6.1-2.2-6.1-4.8s1-4.5,7-5.8c3.5-.8,6.3-1.2,8.5-1.5,0,4.7,0,5.5-.9,7.2Z"/>
        <path class="cls-2" d="M355.8,67.4c-.8.5-1.7,1.1-2.5,1.6-9.8-5.4-30.6-15.8-32.5-16.7-1.8-.9-5.3-2.4-4.9-5.6.6-4.5,8.4-14.4,11.8-18.5C345.7,6.2,353.8-.7,359.1,0c5.7.8,8.9,6.7,9.3,34.3-3.2-1-6.7-2-10.5-2.9-.3-4-1-10.1-1.4-12.2-.3-2.4-.8-3.3-1.7-3.4-1-.1-3.7,2.4-6.1,4.8l-7.5,7.6c-2.8-.2-4.7.4-5.8,1.8-.9,1.4-1.1,3-.5,4.5l-4.4,4.4c-3.8,3.8-7.7,6.9-8,8.4-.2,1.2,1.7,2.5,4.5,4.2,6.7,3.9,23,12.8,28.7,15.9ZM381.1,39.8c-6.4-2.2-22.1-8.1-38.7-10.3-5.7-.7-8,1.3-5.7,6.7,2.4,5.4,8.4,14.4,14.6,21.1,6.3,6.7,13.1,8.6,15.3-1.8,0-.4.1-.7.2-1.1.5-2.5.9-5,1.1-7.5-2.8-1.3-5.9-2.6-9.1-3.9.2,2.4.5,6.5.6,9.7v1.2c.2,5.1-1.6,5.1-4.5,3-3.4-2.4-13.8-16.2-15-22.3,0-.4.1-.4.3-.3h.3c2.4,1,10.2,4.1,18.1,7.5,3.2,1.4,6.4,2.7,9.2,4,2.9,1.3,5.3,2.5,7.2,3.5,3.4,1.8,4.8,3.1,3.3,4.6-7.2,7.3-32.1,17.6-40.8,30.4h0c-.1.3-.2.4-.3.6h0c-.6,1.3-1.1,2.6-1.2,3.9-.4,2.8,1.1,5.3,5.1,6.4,1.1.3,2.2.5,3.4.6h.7c7.7.4,27.7-4,33.8-6.7,6.1-2.7,4.4-5.6,2.6-7-1.4-1.1-8.4-5-11.7-6.9l-2.5,1.6c3.3,1.9,6.4,4,9.4,6.3.5.4.2.9-.5.9h-.6c-5.5.4-15.9,1.1-20.8,1.4-.7,0-1.5,0-2,.1,1-.9,2.2-1.8,3.3-2.6,10.4-7.3,27.9-17.6,32.9-22.1,3.8-3.3,14.1-13.3-8.1-21Z"/>
      </g>
    </g>
  </g>
</svg>