<svg xmlns="http://www.w3.org/2000/svg" xmlns:xlink="http://www.w3.org/1999/xlink" width="128.44" height="128.44" viewBox="0 0 128.44 128.44">
  <defs>
    <linearGradient id="linear-gradient" x1="0.06" y1="0.06" x2="0.94" y2="0.94" gradientUnits="objectBoundingBox">
      <stop offset="0" stop-color="#ffc200"/>
      <stop offset="1" stop-color="#ff9400"/>
    </linearGradient>
  </defs>
  <g id="Grupo_99" data-name="Grupo 99" transform="translate(-10467.013 -4985.327)">
    <rect id="Retângulo_22" data-name="Retângulo 22" width="128.441" height="128.441" rx="26.33" transform="translate(10467.013 4985.327)" fill="url(#linear-gradient)"/>
    <path id="Caminho_229" data-name="Caminho 229" d="M-4.169-42.723a33.036,33.036,0,0,1,7.683-.422,20.708,20.708,0,0,1,7.214,1.686A15.561,15.561,0,0,1,16.3-37.336a12.263,12.263,0,0,1,2.764,6.793,48.284,48.284,0,0,1,.187,8.479,20.135,20.135,0,0,1-2.436,8.2A20.19,20.19,0,0,1,10.259-6.98,23.348,23.348,0,0,1,1.968-3.795a32.988,32.988,0,0,1-9.135.328,54.291,54.291,0,0,1-9.088-1.686q-2.155-.468-2.577-1.171a5.371,5.371,0,0,1-.141-2.951q.656-3,1.171-5.9a15.947,15.947,0,0,1,2.108-5.528q2.249.562,3.935,1.031l3.373.937a13.617,13.617,0,0,0,3.373.187A19.318,19.318,0,0,0-.984-19.16a9.868,9.868,0,0,0,3.42-1.593A3.476,3.476,0,0,0,3.888-23.7,4.224,4.224,0,0,0,2.3-27.03a9.424,9.424,0,0,0-3.513-1.686,16.382,16.382,0,0,0-4.076-.515,24.683,24.683,0,0,0-3.373.187q-1.968.187-3.888.515t-3.888.515q-1.593.187-1.921-.141a4.209,4.209,0,0,1-.515-2.014q-.094-1.968-.141-3.935t-.047-4.029q-.094-2.53-.141-5.575t-.094-6.23q-.047-3.186-.094-6.23t-.141-5.481V-64.46a1.679,1.679,0,0,1,1.686-1.686,14.259,14.259,0,0,0,2.014-.328,7.92,7.92,0,0,1,1.827-.234Q-6.793-66.9.187-67.036t14.194-.328q2.249,0,2.764.515t.515,3.045q0,2.811-.094,5.621t-.187,5.809q0,1.312-.656,1.686a2.837,2.837,0,0,1-1.686.281q-2.717-.187-5.434-.468t-5.434-.375Q2.108-51.343.141-51.3t-4.31.047Z" transform="translate(10531.235 5083.37)" fill="#fff"/>
  </g>
</svg>
