<svg xmlns="http://www.w3.org/2000/svg" xmlns:xlink="http://www.w3.org/1999/xlink" width="128.44" height="128.441" viewBox="0 0 128.44 128.441">
  <defs>
    <linearGradient id="linear-gradient" x1="0.06" y1="0.06" x2="0.94" y2="0.94" gradientUnits="objectBoundingBox">
      <stop offset="0" stop-color="#ffc200"/>
      <stop offset="1" stop-color="#ff9400"/>
    </linearGradient>
  </defs>
  <g id="Grupo_100" data-name="Grupo 100" transform="translate(-10656.473 -1713.717)">
    <rect id="Retângulo_13" data-name="Retângulo 13" width="128.441" height="128.441" rx="26.33" transform="translate(10656.473 1713.717)" fill="url(#linear-gradient)"/>
    <path id="Caminho_230" data-name="Caminho 230" d="M14.194-56.309a49.266,49.266,0,0,0-5.2,3.654,47.222,47.222,0,0,0-4.872,4.5,41.655,41.655,0,0,0-4.169,5.2,32.489,32.489,0,0,0-3.092,5.668,31.5,31.5,0,0,1,8.151-2.389,19.477,19.477,0,0,1,8.339.609A13.022,13.022,0,0,1,18.5-35.743a11.634,11.634,0,0,1,2.811,5.481Q23.657-16.677,18.129-9.7T-.141-2.9A29.309,29.309,0,0,1-7.917-4.122a21.361,21.361,0,0,1-6.7-3.326,17.722,17.722,0,0,1-4.825-5.481A17.529,17.529,0,0,1-21.6-20.612a51.709,51.709,0,0,1,4.31-25.578A51.968,51.968,0,0,1-1.171-66.24a2.011,2.011,0,0,1,.656-.375,5.577,5.577,0,0,1,2.67-1.171q.8.047,2.2,1.546Q6.98-63.617,9.51-61.321A41.971,41.971,0,0,1,14.194-56.309ZM4.076-23.985a4.883,4.883,0,0,0-1.124-2.436,2.958,2.958,0,0,0-1.968-.562,3.4,3.4,0,0,0-2.249.7A3.488,3.488,0,0,0-2.3-23.891a21.721,21.721,0,0,0-.094,3.513q.094,1.827.281,3.7a2.638,2.638,0,0,0,.75,1.686,2.638,2.638,0,0,0,1.686.75A2.586,2.586,0,0,0,3.7-16.021a13.532,13.532,0,0,0,.8-4.122A14.357,14.357,0,0,0,4.076-23.985Z" transform="translate(10720.697 1811.76)" fill="#fff"/>
  </g>
</svg>
