<svg xmlns="http://www.w3.org/2000/svg" xmlns:xlink="http://www.w3.org/1999/xlink" width="128.44" height="128.44" viewBox="0 0 128.44 128.44">
  <defs>
    <linearGradient id="linear-gradient" x1="0.06" y1="0.06" x2="0.94" y2="0.94" gradientUnits="objectBoundingBox">
      <stop offset="0" stop-color="#ffc200"/>
      <stop offset="1" stop-color="#ff9400"/>
    </linearGradient>
  </defs>
  <g id="Grupo_97" data-name="Grupo 97" transform="translate(-5164.512 -4520.648)">
    <rect id="Retângulo_40" data-name="Retângulo 40" width="128.441" height="128.441" rx="26.33" transform="translate(5164.512 4520.648)" fill="url(#linear-gradient)"/>
    <path id="Caminho_227" data-name="Caminho 227" d="M13.07-35.6a22.586,22.586,0,0,1,5.012,6.746,20.194,20.194,0,0,1,1.827,8.339,17.267,17.267,0,0,1-3,10.54A16.9,16.9,0,0,1,7.73-3.748,28.96,28.96,0,0,1,.656-2.623,37.3,37.3,0,0,1-6.09-3.045,50.394,50.394,0,0,1-12.6-4.5q-3.186-.937-6.277-2.061a2.89,2.89,0,0,1-1.312-1.124,2.547,2.547,0,0,1-.187-1.968q.656-3.279,1.171-6.652t1.171-6.839a2.784,2.784,0,0,1,1.124-1.968q.75-.375,2.342.562a33.037,33.037,0,0,0,8.526,3.326,18.946,18.946,0,0,0,8.057.047,3.736,3.736,0,0,0,1.78-.937,3.027,3.027,0,0,0,.843-1.546A3.543,3.543,0,0,0,4.5-25.531a3.988,3.988,0,0,0-1.171-1.733A6.97,6.97,0,0,0,.187-29a19.075,19.075,0,0,0-3.513-.515,8.455,8.455,0,0,0-2.342-.047q-1.124.141-2.436.328A1.906,1.906,0,0,1-9.51-29.56a1.588,1.588,0,0,1-.562-1.359q-.187-1.968-.187-3.982t-.187-4.076q0-1.218.8-1.546a6.472,6.472,0,0,1,1.921-.422q1.593-.094,3.279-.281t3.279-.375a4.684,4.684,0,0,0,3.654-2.155,4.824,4.824,0,0,0,.609-3.607,4.545,4.545,0,0,0-2.155-2.9Q-.8-51.343-3.607-50.312q-.843.375-2.014.89t-2.389,1.077q-1.218.562-2.342,1.171T-12.32-46a4.1,4.1,0,0,1-2.155.609q-.562-.141-1.405-1.921-1.031-2.717-2.108-5.387T-20.1-58.089a4.748,4.748,0,0,1-.656-2.2q.094-.609,1.405-1.452A49.656,49.656,0,0,1-11.2-65.818,26.025,26.025,0,0,1-2.2-67.552,27.285,27.285,0,0,1,5.34-66.9,21.28,21.28,0,0,1,12.32-63.8a15.993,15.993,0,0,1,5.387,6.137,19.3,19.3,0,0,1,2.108,7.917,17.963,17.963,0,0,1-1.452,7.964A13.537,13.537,0,0,1,13.07-35.6Z" transform="translate(5228.733 4618.69)" fill="#fff"/>
  </g>
</svg>
