<svg xmlns="http://www.w3.org/2000/svg" xmlns:xlink="http://www.w3.org/1999/xlink" width="128.44" height="128.441" viewBox="0 0 128.44 128.441">
  <defs>
    <linearGradient id="linear-gradient" x1="0.06" y1="0.06" x2="0.94" y2="0.94" gradientUnits="objectBoundingBox">
      <stop offset="0" stop-color="#ffc200"/>
      <stop offset="1" stop-color="#ff9400"/>
    </linearGradient>
  </defs>
  <g id="Grupo_96" data-name="Grupo 96" transform="translate(-4180.75 -2339.262)">
    <rect id="Retângulo_49" data-name="Retângulo 49" width="128.441" height="128.441" rx="26.33" transform="translate(4180.75 2339.262)" fill="url(#linear-gradient)"/>
    <path id="Caminho_226" data-name="Caminho 226" d="M2.717-19.113a90.133,90.133,0,0,0,9.931-1.968,60.981,60.981,0,0,1,9.931-1.686,65.637,65.637,0,0,1-.141,8.245q-.328,4.029-.515,7.964a3.7,3.7,0,0,1-.609,2.342,3.945,3.945,0,0,1-2.389.468Q9.369-3.748,0-3.795a166.135,166.135,0,0,0-18.832.984,2.818,2.818,0,0,1-2.014-.422,2.547,2.547,0,0,1-.7-1.827q-.187-3.467-.375-6.98t-.375-6.98a.577.577,0,0,1,.094-.328.455.455,0,0,0,.094-.234q2.155-1.031,4.357-1.827a22.323,22.323,0,0,0,4.169-2.014A27.907,27.907,0,0,0-5.621-29.7a47.408,47.408,0,0,0,5.9-8.432,14.505,14.505,0,0,0,1.827-4.685,16.222,16.222,0,0,0,.234-5.059,13.952,13.952,0,0,0-.515-1.874A1.644,1.644,0,0,0,.468-50.874a3.243,3.243,0,0,0-3.139.422,6.9,6.9,0,0,0-1.874,2.623,17.542,17.542,0,0,0-1.077,3.56Q-6-42.349-6.184-41.131a4.023,4.023,0,0,1-.89,2.53,3.3,3.3,0,0,1-2.3.656q-2.436-.094-4.919-.234t-4.919-.234a2.386,2.386,0,0,1-2.53-2.623q0-2.717-.047-5.294a29.4,29.4,0,0,1,.328-5.012A20.072,20.072,0,0,1-19.3-57.48a19.032,19.032,0,0,1,3.607-4.638,21.147,21.147,0,0,1,4.731-3.326,33.573,33.573,0,0,1,5.715-2.3,22.406,22.406,0,0,1,6.793-.843,21.342,21.342,0,0,1,6.746,1.265,21.012,21.012,0,0,1,5.9,3.279,17.592,17.592,0,0,1,4.357,5.012,18.953,18.953,0,0,1,2.3,10.54,33.373,33.373,0,0,1-2.764,11.477A38.984,38.984,0,0,1,11.524-26.7,31.153,31.153,0,0,1,2.53-19.488.54.54,0,0,1,2.717-19.113Z" transform="translate(4244.97 2437.304)" fill="#fff"/>
  </g>
</svg>
