<?xml version="1.0" encoding="UTF-8"?>
<svg xmlns="http://www.w3.org/2000/svg" xmlns:xlink="http://www.w3.org/1999/xlink" version="1.1" viewBox="0 0 1117.7 604.7">
  <defs>
    <style>
      .cls-1 {
        filter: url(#drop-shadow-1);
      }

      .cls-2 {
        filter: url(#drop-shadow-2);
      }

      .cls-3 {
        filter: url(#drop-shadow-4);
      }

      .cls-4 {
        fill: #5e133d;
        filter: url(#drop-shadow-3);
      }

      .cls-5 {
        stroke: #fff;
        stroke-linecap: round;
        stroke-miterlimit: 10;
        stroke-width: 4px;
      }

      .cls-5, .cls-6, .cls-7 {
        fill: #fff;
      }

      .cls-7 {
        filter: url(#drop-shadow-5);
      }
    </style>
    <filter id="drop-shadow-1" x="3.8" y="158.9" width="1127" height="177.8" filterUnits="userSpaceOnUse">
      <feOffset dx="0" dy="0"/>
      <feGaussianBlur result="blur" stdDeviation="6"/>
      <feFlood flood-color="#010101" flood-opacity=".8"/>
      <feComposite in2="blur" operator="in"/>
      <feComposite in="SourceGraphic"/>
    </filter>
    <filter id="drop-shadow-2" x="565.9" y="331" width="570" height="181.4" filterUnits="userSpaceOnUse">
      <feOffset dx="0" dy="0"/>
      <feGaussianBlur result="blur-2" stdDeviation="6"/>
      <feFlood flood-color="#010101" flood-opacity=".8"/>
      <feComposite in2="blur-2" operator="in"/>
      <feComposite in="SourceGraphic"/>
    </filter>
    <filter id="drop-shadow-3" x="0" y="0" width="511.4" height="152.4" filterUnits="userSpaceOnUse">
      <feOffset dx="0" dy="0"/>
      <feGaussianBlur result="blur-3" stdDeviation="6"/>
      <feFlood flood-color="#010101" flood-opacity=".8"/>
      <feComposite in2="blur-3" operator="in"/>
      <feComposite in="SourceGraphic"/>
    </filter>
    <filter id="drop-shadow-4" x="58.1" y="27.8" width="395.5" height="99.6" filterUnits="userSpaceOnUse">
      <feOffset dx="0" dy="0"/>
      <feGaussianBlur result="blur-4" stdDeviation="6"/>
      <feFlood flood-color="#010101" flood-opacity=".8"/>
      <feComposite in2="blur-4" operator="in"/>
      <feComposite in="SourceGraphic"/>
    </filter>
    <filter id="drop-shadow-5" x="3.8" y="362.4" width="612.7" height="135.4" filterUnits="userSpaceOnUse">
      <feOffset dx="0" dy="0"/>
      <feGaussianBlur result="blur-5" stdDeviation="6"/>
      <feFlood flood-color="#010101" flood-opacity=".8"/>
      <feComposite in2="blur-5" operator="in"/>
      <feComposite in="SourceGraphic"/>
    </filter>
  </defs>
  <!-- Generator: Adobe Illustrator 28.7.1, SVG Export Plug-In . SVG Version: 1.2.0 Build 142)  -->
  <g>
    <g id="Camada_1">
      <g>
        <g class="cls-1">
          <path class="cls-6" d="M32.7,203.3l-7.3-3.5c-1.5-2.2-2.6-4.2-3.1-6.1-.5-1.9-.6-4.2-.4-6.7,1.8-6.5,5.8-9.9,12.1-10h155.8c6.9,1.2,10.9,5.7,11.9,13.6-.4,2.1-.9,3.8-1.5,5.2-.6,1.4-1.7,2.9-3.3,4.4l-6.1,3.1H32.7ZM33.9,318.6c-1.8-.5-3.5-1.1-5-1.7-1.5-.6-3-1.8-4.4-3.5l-2.5-4.6v-67.6c1.7-6.4,5.4-9.9,11.3-10.4h142.4l6.9,3.8c1.4,2.1,2.5,4,3.2,5.9.7,1.9.7,4.2,0,7l-3.1,5.8c-1.5,1-2.9,1.8-4,2.4-1.2.6-2.6,1.1-4.4,1.6H47.9v51.5c-1,2-2.1,3.7-3.1,5-1,1.3-2.5,2.5-4.4,3.7l-6.5,1.2Z"/>
          <path class="cls-6" d="M243.5,318.6c-12-.6-22.5-5.3-31.5-14-6-6.5-9.5-14.3-10.6-23.2v-94.3c2.6-6.3,7.1-9.6,13.6-10,4.1.4,7.6,2.3,10.4,5.8l1.9,4v89.7c0,4.2,1.5,7.9,4.6,11,3.2,2.7,6.8,4.3,10.8,4.8h98.4c3.5-.3,6.6-1.9,9.4-5,2.3-2.9,3.7-6.2,4.2-9.8v-89.2c1.2-4.7,3-7.8,5.6-9.2,2.6-1.4,5.6-2.1,9-2.1,6.8.6,10.8,4.8,11.9,12.5v86.7c-.6,12.7-5.7,23.6-15.2,32.7-7.4,5.9-15.9,9.2-25.4,9.8h-97.2Z"/>
          <path class="cls-6" d="M469.7,318.6c-3.7-.5-6.9-2.2-9.4-5.2l-2.7-5v-105.1h-65.5c-5.3-1.5-8.9-4.9-11-10v-6.3c2.7-6.3,6.6-9.6,11.7-10h156c7.4,1.3,11.4,5.8,11.9,13.6-.4,3.6-2,6.8-4.8,9.6l-6.1,3.1h-66.3v105.5l-3.1,5.8c-3.3,2.7-6.9,4-10.8,4Z"/>
          <path class="cls-6" d="M602.4,318.6c-12-.6-22.5-5.3-31.5-14-6-6.5-9.5-14.3-10.6-23.2v-94.3c2.6-6.3,7.1-9.6,13.6-10,4.1.4,7.6,2.3,10.4,5.8l1.9,4v89.7c0,4.2,1.5,7.9,4.6,11,3.2,2.7,6.8,4.3,10.8,4.8h98.4c3.5-.3,6.6-1.9,9.4-5,2.3-2.9,3.7-6.2,4.2-9.8v-89.2c1.2-4.7,3-7.8,5.6-9.2,2.6-1.4,5.6-2.1,9-2.1,6.8.6,10.8,4.8,11.9,12.5v86.7c-.6,12.7-5.7,23.6-15.2,32.7-7.4,5.9-15.9,9.2-25.4,9.8h-97.2Z"/>
          <path class="cls-6" d="M759.6,318.6c-3.7-.5-6.9-2.2-9.6-5.2l-2.5-4.6v-60.3c2.6-6.3,6.3-9.6,11.3-10h120.1c4.5-.6,8.3-2.8,11.3-6.5,1.8-2.6,2.8-5.2,3.1-7.9v-6.3c-.3-3.8-1.9-7.2-5-10-2.9-2.3-6.3-3.8-10-4.4h-119.7c-5.5-1.5-9.2-4.9-11.1-10v-6.3c2.8-6.3,6.8-9.6,11.9-10h117.6c12.8.6,23.8,5.8,32.9,15.4,4.7,6.1,7.9,13.1,9.4,20.8v5.4l.6,4.6c-.4,10-3,18.1-7.9,24.2,4.9,3.2,8.8,8.3,11.7,15.4,2.2,5,3.4,10.5,3.7,16.5v27.1c-1,8.1-5.8,12.2-14.4,12.3-3.6-.5-6.8-2.2-9.6-5.2l-2.5-5.8v-29.8c-.5-3.6-2.2-6.8-5-9.6-2.4-1.9-5.2-3-8.3-3.3h-114.1v43.6c-1.4,3.6-3.9,6.5-7.5,8.8l-6.3,1.2Z"/>
          <path class="cls-6" d="M972.9,318.6c-11.1-.6-20.9-5.1-29.4-13.4-5.8-7.3-9.4-15.9-10.8-25.7v-63.6c1.4-10.5,6.1-20,14-28.4,7.8-6.3,16.5-9.7,25.9-10.4h98c12.3,1.2,22.8,6.3,31.5,15.4,6.3,7.9,9.7,17,10.4,27.1v56.7c-.6,12.7-5.7,23.6-15.2,32.7-7.4,5.9-15.9,9.2-25.4,9.8h-99.1ZM1079.9,289.2c3.3-3.3,5.4-7.2,6.1-11.7v-58.8c-.3-4.2-2.1-7.9-5.4-11-2.9-2.3-6.1-3.8-9.4-4.4h-98.8c-3.3.3-6.2,1.7-8.6,4.2-2.9,3.5-4.7,7.6-5.2,12.3v56.1c.5,5,2.6,9.4,6.1,13.1,2.4,1.9,5.2,3,8.3,3.3h98.8l8.1-3.1Z"/>
        </g>
        <g class="cls-2">
          <path class="cls-6" d="M595.3,494.2l-7.9-5.3c-1.2-1.1-2.1-2.5-2.7-4.3-.5-1.8-.8-3.4-.8-4.7v-5.1l28.2-45.6,7.2-4.2h74.5l-35.4-51.6c-2.3-8.5-.8-14.8,4.6-19,1.1-1.1,2.5-1.9,4.2-2.5,1.7-.6,3.2-.9,4.6-.9s2.8-.1,4.3-.3c1.5-.2,5.1,1.7,10.8,5.9l77.1,118.1c-1.1,9-2.6,14.3-4.5,16-1.9,1.7-3.8,2.7-5.6,3.1-1.8.4-3.5.6-5.1.6h-5.4l-8.3-5.3-20.1-32.4h-83.3l-21.3,33.3c-1.7,1.2-3.2,2.3-4.5,3.1-1.3.8-2.9,1.3-4.7,1.3h-5.8Z"/>
          <path class="cls-6" d="M770,493.6c-.9-.6-2.1-1-3.5-1.2-1.4-.2-2.7-.8-3.8-1.9-1.2-1.1-2.2-2.1-3.1-3-.6-1.2-1.3-2.6-2-4.1-.7-1.5-1.1-3.7-1.3-6.7-.2-3,1.2-6.4,4.2-10.3l111.8-84h-103.9c-5.7-2.6-8.9-4.6-9.5-5.9-.6-1.3-1.2-2.7-1.6-4.3-.5-1.5-.7-3-.7-4.4v-4.6c2.3-7.1,6.4-11.2,12.3-12.3h154.4c5.6,1.4,9.2,3.9,10.9,7.4,4.2,6.5,3.1,13.1-3.2,19.9l-110.9,83.1,102.8.5c8,1.9,12.4,7,13.2,15.5-.5,9-5.3,14.4-14.6,16.2h-151.4Z"/>
          <path class="cls-6" d="M952,493.6c-.9-.6-2.1-1-3.5-1.2-1.4-.2-2.7-.8-3.8-1.9-1.2-1.1-2.3-2.1-3.4-3l-3-5.8v-70.6c1.9-8.2,6.7-12.3,14.6-12.3h110.4c2.9-.8,5.2-2.5,6.7-5.1.5-.6.8-1.3.9-2.1.2-.8.2-1.7.2-2.8v-2.5c0-.2-.3-.6-1-1.4-.7-.8-1.5-1.4-2.4-2-.9-.5-1.7-1.1-2.3-1.7l-1.6-.7h-113.9l-7.9-5.3c-1.4-1.2-2.4-2.7-2.9-4.5-.5-1.8-.8-3.4-.8-4.7v-4.4c2-7.3,6.2-11.4,12.5-12.5h117.6c3.4,1.1,6.5,2.2,9.3,3.2,2.8,1.1,5.7,2.6,8.7,4.6,3,2,5.6,4.4,7.8,7.2,2.3,2.5,4.1,5.3,5.4,8.6,1.3,3.2,2.3,6.7,3,10.3.7,3.6.8,7.2.3,10.8-.3,2.3-.8,4.5-1.5,6.5-.7,2-1.5,3.9-2.4,5.6-.9,1.7-1.3,2.4-1.2,2.1.8.5,2.6,1.8,5.4,4.1,2.9,2.2,5.2,4.7,6.9,7.4,1.8,2.7,3.4,5.6,4.7,8.7,1.1,2.8,1.8,5.4,2.2,7.9.4,2.5.6,5.1.6,7.8v8.2c-.9,3.2-1.8,6.4-2.7,9.5-.9,3.1-2.3,6.1-4.3,8.9-2,2.9-4.1,5.6-6.3,8.2-3.7,3.2-7.6,5.9-11.7,8-4.1,2.1-8.3,3.7-12.6,4.7-4.3,1.1-8.9,1.9-13.7,2.3h-114.6ZM1078.1,458.4c1.1-.6,2-1.2,2.8-1.6.8-.5,1.5-1.1,2.1-2,.6-.8,1.2-1.6,1.9-2.2l1.6-9.3c-.3-.8-.6-1.6-.8-2.5-.2-.9-.6-1.7-1-2.4-.5-.7-.9-1.3-1.4-1.7-1.1-.9-2.5-1.8-4.2-2.5-1.7-.8-3.4-1.4-5.1-2-1.7-.5-3.3-1-4.9-1.3h-99.5v31h98.4l10.2-3.5Z"/>
        </g>
        <path class="cls-4" d="M45.4,18.1h447.9v94.2c0,12.1-9.8,21.9-21.9,21.9H18.1V45.4c0-15.1,12.2-27.3,27.3-27.3Z"/>
        <g class="cls-3">
          <path class="cls-6" d="M88.7,46.8v61.6h-12.6v-61.6h12.6ZM97.7,108.4h-16v-10.9h15.3c4,0,7.3-.7,10-2.1,2.7-1.4,4.7-3.6,6.1-6.5,1.4-3,2-6.7,2-11.3s-.7-8.3-2-11.3c-1.4-2.9-3.4-5.1-6-6.5-2.7-1.4-6-2.1-9.9-2.1h-15.7v-10.9h16.5c6.2,0,11.5,1.2,15.9,3.7,4.5,2.5,7.9,6,10.3,10.6,2.4,4.6,3.6,10.1,3.6,16.5s-1.2,11.9-3.6,16.5c-2.4,4.6-5.8,8.1-10.3,10.6-4.5,2.5-9.9,3.7-16.1,3.7Z"/>
          <path class="cls-6" d="M137.2,108.4v-61.6h41.2v10.5h-28.6v14.9h26.5v10.3h-26.5v15.5h28.7v10.5h-41.3Z"/>
          <path class="cls-6" d="M211.3,109.4c-4.9,0-9.2-.8-12.9-2.3-3.7-1.5-6.5-3.8-8.5-6.7-2-3-3.1-6.6-3.2-11h12.3c.2,2.1.8,3.8,1.9,5.2,1.1,1.4,2.5,2.4,4.3,3.1s3.8,1,6.1,1,4.2-.3,5.9-1c1.7-.6,3-1.6,3.9-2.8.9-1.2,1.4-2.6,1.4-4.1s-.4-2.6-1.3-3.5c-.8-1-2-1.8-3.6-2.5s-3.5-1.3-5.7-1.8l-6.8-1.7c-5.2-1.3-9.3-3.3-12.2-6-3-2.7-4.4-6.3-4.4-10.8s1-7,3-9.8c2-2.8,4.7-4.9,8.2-6.5,3.5-1.5,7.5-2.3,11.9-2.3s8.5.8,11.9,2.3c3.4,1.6,6,3.7,7.9,6.5,1.9,2.8,2.9,6,2.9,9.6h-12.2c-.2-2.5-1.3-4.4-3.2-5.7-1.9-1.4-4.4-2-7.5-2s-3.9.3-5.5.9c-1.5.6-2.7,1.4-3.5,2.5-.8,1.1-1.2,2.3-1.2,3.7s.5,2.8,1.4,3.8c.9,1,2.1,1.8,3.6,2.4,1.5.6,3.1,1.1,4.8,1.6l5.6,1.4c2.6.6,5,1.4,7.2,2.4,2.2,1,4.2,2.2,5.9,3.7,1.7,1.4,3,3.2,3.9,5.1.9,2,1.4,4.3,1.4,6.9,0,3.7-.9,7-2.8,9.7-1.9,2.8-4.6,4.9-8.1,6.4-3.6,1.5-7.8,2.3-12.8,2.3Z"/>
          <path class="cls-6" d="M239.3,108.4l21.1-61.6h16.5l21.6,61.6h-14l-9.9-29.7c-1.2-3.8-2.4-8-3.6-12.6-1.2-4.6-2.5-9.5-3.9-15h2.8c-1.3,5.4-2.6,10.4-3.7,15-1.1,4.6-2.3,8.8-3.4,12.5l-9.5,29.7h-13.9ZM252.5,94.1v-9.9h32.9v9.9h-32.9Z"/>
          <path class="cls-6" d="M306.1,108.4v-61.6h40.5v10.5h-27.9v17.2h25.2v10.3h-25.2v23.7h-12.6Z"/>
          <path class="cls-6" d="M368.5,46.8v61.6h-12.6v-61.6h12.6Z"/>
          <path class="cls-6" d="M406.7,109.3c-5.4,0-10.3-1.2-14.7-3.7-4.3-2.5-7.8-6.1-10.3-10.8-2.5-4.7-3.8-10.4-3.8-17.1s1.3-12.4,3.8-17.1c2.5-4.7,6-8.3,10.3-10.8,4.3-2.5,9.2-3.7,14.7-3.7s10.4,1.2,14.7,3.7c4.3,2.5,7.8,6.1,10.3,10.8,2.5,4.7,3.8,10.4,3.8,17.1s-1.3,12.4-3.8,17.1c-2.5,4.7-5.9,8.3-10.3,10.8-4.3,2.5-9.2,3.7-14.7,3.7ZM406.7,98.1c3.2,0,6-.8,8.4-2.3,2.4-1.6,4.2-3.9,5.6-6.9,1.3-3,2-6.8,2-11.1s-.7-8.2-2-11.2c-1.3-3-3.2-5.4-5.6-6.9-2.4-1.6-5.2-2.3-8.4-2.3s-6,.8-8.4,2.4c-2.4,1.6-4.3,3.9-5.6,6.9s-2,6.8-2,11.2.7,8.1,2,11.1c1.3,3,3.2,5.3,5.6,6.9,2.4,1.6,5.2,2.4,8.4,2.4Z"/>
        </g>
        <polygon class="cls-7" points="22 479.5 598.3 380.6 553.1 453.7 22 479.5"/>
        <g>
          <path class="cls-6" d="M33.1,595.5l11.7-32h3.6l11.8,32h-3.2l-7.6-20.9c-.4-1.2-.9-2.5-1.4-4.1-.5-1.6-1.1-3.4-1.8-5.6h.6c-.7,2.2-1.2,4.1-1.8,5.7-.5,1.6-1,2.9-1.4,4l-7.5,20.9h-3.2ZM38.5,586v-2.7h16.3v2.7h-16.3Z"/>
          <path class="cls-6" d="M75.3,596.1c-2.2,0-4.1-.4-5.7-1.1-1.6-.7-2.9-1.7-3.8-3-.9-1.3-1.4-2.8-1.6-4.5h3.1c.1,1.3.5,2.3,1.3,3.2.7.9,1.7,1.5,2.8,2,1.2.5,2.5.7,3.9.7s3-.3,4.2-.8c1.2-.5,2.2-1.3,2.9-2.2.7-1,1.1-2.1,1.1-3.3s-.3-2-.8-2.7c-.6-.7-1.3-1.3-2.3-1.8-1-.5-2.2-.9-3.5-1.3l-3.8-1.1c-2.5-.7-4.5-1.8-5.9-3.1-1.4-1.3-2.1-3-2.1-5s.5-3.3,1.4-4.6c.9-1.3,2.2-2.3,3.8-3.1,1.6-.7,3.4-1.1,5.3-1.1s3.8.4,5.3,1.1c1.5.7,2.8,1.8,3.7,3,.9,1.3,1.4,2.7,1.5,4.4h-3c-.2-1.8-1-3.2-2.3-4.2s-3.1-1.5-5.2-1.5-2.8.3-3.9.8c-1.1.5-2,1.2-2.6,2.1-.6.9-.9,1.9-.9,3s.3,2,.9,2.8c.6.7,1.4,1.3,2.4,1.8,1,.5,2,.9,3,1.2l3.4,1c1,.3,2.1.7,3.1,1.1,1,.4,2,1,2.8,1.7.8.7,1.5,1.5,2,2.4.5,1,.8,2.1.8,3.4s-.4,3.3-1.3,4.6c-.9,1.4-2.2,2.5-3.8,3.2-1.7.8-3.7,1.2-6,1.2Z"/>
          <path class="cls-6" d="M91.4,566.3v-2.7h23.3v2.7h-10.1v29.3h-3.1v-29.3h-10.2Z"/>
          <path class="cls-6" d="M121.3,595.5v-32h10.4c2.3,0,4.2.4,5.7,1.2,1.5.8,2.7,2,3.5,3.4.8,1.4,1.2,3.1,1.2,5s-.4,3.5-1.2,4.9c-.8,1.4-1.9,2.5-3.5,3.4-1.5.8-3.4,1.2-5.7,1.2h-8.8v-2.8h8.6c1.7,0,3-.3,4.1-.8,1.1-.6,1.9-1.3,2.5-2.4.6-1,.8-2.2.8-3.6s-.3-2.6-.8-3.7c-.6-1-1.4-1.8-2.5-2.4-1.1-.6-2.5-.9-4.1-.9h-7.3v29.3h-3.1ZM139.9,595.5l-7.8-14.5h3.4l7.9,14.5h-3.5Z"/>
          <path class="cls-6" d="M146.2,595.5l11.7-32h3.6l11.8,32h-3.2l-7.6-20.9c-.4-1.2-.9-2.5-1.4-4.1-.5-1.6-1.1-3.4-1.8-5.6h.6c-.7,2.2-1.2,4.1-1.8,5.7-.5,1.6-1,2.9-1.4,4l-7.5,20.9h-3.2ZM151.7,586v-2.7h16.3v2.7h-16.3Z"/>
          <path class="cls-6" d="M177.6,595.5v-2.3l14.8-22.6c.6-.9,1.3-1.9,1.9-2.8.7-.9,1.3-1.8,2-2.8l.4,1c-1.3,0-2.5,0-3.8.1-1.3,0-2.5,0-3.8,0h-11.5v-2.8h21.5v2.3l-14.7,22.5c-.6.9-1.3,1.9-2,2.8-.7,1-1.4,1.9-2.1,2.8l-.4-1c1.2,0,2.5,0,3.7-.1,1.3,0,2.5,0,3.7,0h11.8v2.7h-21.5Z"/>
          <path class="cls-6" d="M206.2,595.5v-32h18.7v2.7h-15.6v11.8h14.7v2.7h-14.7v12h15.9v2.7h-19Z"/>
          <path class="cls-6" d="M232.4,595.5v-32h3.5l14.6,21.7c.4.6.9,1.3,1.4,2.1.5.8,1,1.7,1.6,2.6.6.9,1.1,1.9,1.6,3h-.5c0-1.1-.2-2.1-.2-3.1,0-1,0-1.9,0-2.8,0-.9,0-1.7,0-2.4v-21.2h3.1v32h-3.5l-13.6-20.2c-.5-.8-1.1-1.6-1.6-2.5-.5-.8-1.1-1.8-1.8-2.9-.6-1.1-1.4-2.3-2.2-3.8h.6c0,1.3,0,2.5.1,3.7,0,1.1,0,2.2.1,3.1,0,.9,0,1.7,0,2.3v20.3h-3.1Z"/>
          <path class="cls-6" d="M265.8,595.5v-32h18.7v2.7h-15.6v11.8h14.7v2.7h-14.7v12h15.9v2.7h-19Z"/>
          <path class="cls-6" d="M304.5,596c-2.7,0-5.1-.7-7.2-2-2.1-1.3-3.7-3.2-4.9-5.7-1.2-2.5-1.8-5.4-1.8-8.7s.6-6.3,1.8-8.7c1.2-2.5,2.8-4.4,4.9-5.7,2.1-1.3,4.5-2,7.2-2s3.3.3,4.7.8c1.4.5,2.7,1.3,3.8,2.2,1.1,1,2,2.1,2.7,3.3.7,1.3,1.2,2.6,1.5,4.1h-3.1c-.2-1.1-.6-2.1-1.2-3s-1.3-1.7-2.1-2.4c-.8-.7-1.8-1.2-2.9-1.6-1.1-.4-2.2-.6-3.5-.6-2,0-3.8.5-5.5,1.6-1.7,1-3,2.6-4,4.6-1,2-1.5,4.5-1.5,7.4s.5,5.4,1.5,7.4,2.3,3.5,4,4.6,3.5,1.5,5.5,1.5,2.4-.2,3.5-.6c1.1-.4,2-.9,2.9-1.6.8-.7,1.5-1.5,2.1-2.4.6-.9,1-1.9,1.2-3h3.1c-.2,1.5-.7,2.8-1.4,4.1s-1.6,2.4-2.7,3.3c-1.1,1-2.4,1.7-3.8,2.2s-3,.8-4.7.8Z"/>
          <path class="cls-6" d="M320.3,595.5l11.7-32h3.6l11.8,32h-3.2l-7.6-20.9c-.4-1.2-.9-2.5-1.4-4.1-.5-1.6-1.1-3.4-1.8-5.6h.6c-.7,2.2-1.2,4.1-1.8,5.7-.5,1.6-1,2.9-1.4,4l-7.5,20.9h-3.2ZM325.8,586v-2.7h16.3v2.7h-16.3Z"/>
          <path class="cls-6" d="M351.8,602.8l2-11.3h3.3l-3,11.3h-2.3Z"/>
          <path class="cls-6" d="M389.7,596c-2.4,0-4.5-.5-6.4-1.5-1.8-1-3.3-2.3-4.3-4-1-1.7-1.5-3.7-1.5-5.8v-21.1h3.1v20.9c0,1.7.4,3.2,1.1,4.5.8,1.3,1.8,2.4,3.2,3.1,1.4.8,3,1.1,4.8,1.1s3.4-.4,4.8-1.1c1.4-.8,2.4-1.8,3.2-3.1.8-1.3,1.1-2.8,1.1-4.5v-20.9h3.1v21.1c0,2.2-.5,4.1-1.5,5.8-1,1.7-2.4,3.1-4.3,4s-3.9,1.5-6.3,1.5Z"/>
          <path class="cls-6" d="M410.1,595.5v-32h4.3l8.9,22c.2.5.4,1,.6,1.7.2.6.5,1.3.7,2,.3.7.5,1.4.7,2.2.2.7.4,1.4.6,2h-.8c.2-.6.4-1.3.6-2,.2-.7.5-1.4.7-2.1.3-.7.5-1.4.7-2.1.2-.7.4-1.2.6-1.7l8.9-22h4.3v32h-3v-22.4c0-.8,0-1.6,0-2.4,0-.8,0-1.7,0-2.5,0-.8,0-1.6,0-2.4h.3c-.3.9-.6,1.7-.9,2.6-.3.9-.6,1.7-.9,2.6-.3.8-.6,1.6-.8,2.3-.3.7-.5,1.4-.7,1.9l-8.3,20.3h-2.7l-8.4-20.3c-.2-.5-.5-1.1-.7-1.8-.3-.7-.5-1.5-.8-2.3-.3-.8-.6-1.7-.9-2.6-.3-.9-.6-1.8-1-2.7h.4c0,.7,0,1.5,0,2.3,0,.8,0,1.6,0,2.5,0,.8,0,1.6,0,2.4,0,.8,0,1.5,0,2.2v20.3h-2.9Z"/>
          <path class="cls-6" d="M446.7,595.5l11.7-32h3.6l11.8,32h-3.2l-7.6-20.9c-.4-1.2-.9-2.5-1.4-4.1-.5-1.6-1.1-3.4-1.8-5.6h.6c-.7,2.2-1.2,4.1-1.8,5.7-.5,1.6-1,2.9-1.4,4l-7.5,20.9h-3.2ZM452.2,586v-2.7h16.3v2.7h-16.3Z"/>
          <path class="cls-6" d="M491.7,595.5v-32h4.3l8.9,22c.2.5.4,1,.6,1.7.2.6.5,1.3.7,2,.3.7.5,1.4.7,2.2.2.7.4,1.4.6,2h-.8c.2-.6.4-1.3.6-2,.2-.7.5-1.4.7-2.1.3-.7.5-1.4.7-2.1.2-.7.4-1.2.6-1.7l8.9-22h4.3v32h-3v-22.4c0-.8,0-1.6,0-2.4,0-.8,0-1.7,0-2.5,0-.8,0-1.6,0-2.4h.3c-.3.9-.6,1.7-.9,2.6-.3.9-.6,1.7-.9,2.6-.3.8-.6,1.6-.8,2.3-.3.7-.5,1.4-.7,1.9l-8.3,20.3h-2.7l-8.4-20.3c-.2-.5-.5-1.1-.7-1.8-.3-.7-.5-1.5-.8-2.3-.3-.8-.6-1.7-.9-2.6-.3-.9-.6-1.8-1-2.7h.4c0,.7,0,1.5,0,2.3,0,.8,0,1.6,0,2.5,0,.8,0,1.6,0,2.4,0,.8,0,1.5,0,2.2v20.3h-2.9Z"/>
          <path class="cls-6" d="M528.3,595.5l11.7-32h3.6l11.8,32h-3.2l-7.6-20.9c-.4-1.2-.9-2.5-1.4-4.1-.5-1.6-1.1-3.4-1.8-5.6h.6c-.7,2.2-1.2,4.1-1.8,5.7-.5,1.6-1,2.9-1.4,4l-7.5,20.9h-3.2ZM533.8,586v-2.7h16.3v2.7h-16.3ZM540.6,560.3l3.1-6.2h3.3l-4,6.2h-2.4Z"/>
          <path class="cls-6" d="M572.2,596c-2.7,0-5.1-.7-7.2-2-2.1-1.3-3.7-3.2-4.9-5.7-1.2-2.5-1.8-5.4-1.8-8.7s.6-6.3,1.8-8.7c1.2-2.5,2.8-4.4,4.9-5.7,2.1-1.3,4.5-2,7.2-2s5.1.7,7.2,2c2.1,1.3,3.7,3.3,4.9,5.7,1.2,2.5,1.8,5.4,1.8,8.7s-.6,6.2-1.8,8.7c-1.2,2.5-2.8,4.4-4.9,5.7-2.1,1.3-4.5,2-7.2,2ZM572.2,593.1c2.1,0,3.9-.5,5.6-1.6,1.6-1.1,2.9-2.6,3.9-4.7,1-2,1.4-4.5,1.4-7.3s-.5-5.3-1.4-7.3c-1-2-2.2-3.6-3.9-4.7-1.6-1.1-3.5-1.6-5.6-1.6s-4,.5-5.6,1.6c-1.6,1.1-2.9,2.6-3.9,4.7-1,2-1.4,4.5-1.4,7.3s.5,5.2,1.4,7.3c1,2,2.3,3.6,3.9,4.7,1.6,1.1,3.5,1.6,5.6,1.6ZM571.7,585.5h3.2l4.1,5.4.7.9,5,6.7h-3.2l-3.7-4.9-.7-.9-5.5-7.2Z"/>
          <path class="cls-6" d="M605,596c-2.4,0-4.5-.5-6.4-1.5-1.8-1-3.3-2.3-4.3-4-1-1.7-1.5-3.7-1.5-5.8v-21.1h3.1v20.9c0,1.7.4,3.2,1.1,4.5.8,1.3,1.8,2.4,3.2,3.1,1.4.8,3,1.1,4.8,1.1s3.4-.4,4.8-1.1c1.4-.8,2.4-1.8,3.2-3.1.8-1.3,1.1-2.8,1.1-4.5v-20.9h3.1v21.1c0,2.2-.5,4.1-1.5,5.8-1,1.7-2.4,3.1-4.3,4s-3.9,1.5-6.3,1.5Z"/>
          <path class="cls-6" d="M628.5,563.5v32h-3.1v-32h3.1Z"/>
          <path class="cls-6" d="M637,595.5v-32h3.5l14.6,21.7c.4.6.9,1.3,1.4,2.1.5.8,1,1.7,1.6,2.6.6.9,1.1,1.9,1.6,3h-.5c0-1.1-.2-2.1-.2-3.1,0-1,0-1.9,0-2.8,0-.9,0-1.7,0-2.4v-21.2h3.1v32h-3.5l-13.6-20.2c-.5-.8-1.1-1.6-1.6-2.5-.5-.8-1.1-1.8-1.8-2.9-.6-1.1-1.4-2.3-2.2-3.8h.6c0,1.3,0,2.5.1,3.7,0,1.1,0,2.2.1,3.1,0,.9,0,1.7,0,2.3v20.3h-3.1Z"/>
          <path class="cls-6" d="M667.4,595.5l11.7-32h3.6l11.8,32h-3.2l-7.6-20.9c-.4-1.2-.9-2.5-1.4-4.1-.5-1.6-1.1-3.4-1.8-5.6h.6c-.7,2.2-1.2,4.1-1.8,5.7-.5,1.6-1,2.9-1.4,4l-7.5,20.9h-3.2ZM672.8,586v-2.7h16.3v2.7h-16.3Z"/>
          <path class="cls-6" d="M715.5,563.5v32h-3.1v-32h3.1ZM721.9,595.5h-7.8v-2.7h7.6c2.7,0,5-.5,6.8-1.6,1.8-1.1,3.2-2.6,4.1-4.6s1.4-4.4,1.4-7.2-.5-5.1-1.4-7.1c-.9-2-2.2-3.5-4-4.5-1.7-1.1-3.9-1.6-6.5-1.6h-8.2v-2.7h8.4c3.1,0,5.7.6,7.9,1.9,2.2,1.3,3.8,3.1,5,5.5,1.2,2.4,1.7,5.2,1.7,8.5s-.6,6.2-1.8,8.6c-1.2,2.4-2.9,4.2-5.2,5.5-2.3,1.3-5,1.9-8.2,1.9Z"/>
          <path class="cls-6" d="M744,595.5v-32h18.7v2.7h-15.6v11.8h14.7v2.7h-14.7v12h15.9v2.7h-19Z"/>
          <path class="cls-6" d="M782.6,595.5v-32h3.1v29.3h15.2v2.7h-18.3Z"/>
          <path class="cls-6" d="M804.4,595.5l11.7-32h3.6l11.8,32h-3.2l-7.6-20.9c-.4-1.2-.9-2.5-1.4-4.1-.5-1.6-1.1-3.4-1.8-5.6h.6c-.7,2.2-1.2,4.1-1.8,5.7-.5,1.6-1,2.9-1.4,4l-7.5,20.9h-3.2ZM809.9,586v-2.7h16.3v2.7h-16.3Z"/>
          <path class="cls-6" d="M837.1,595.5v-32h3.5l14.6,21.7c.4.6.9,1.3,1.4,2.1.5.8,1,1.7,1.6,2.6.6.9,1.1,1.9,1.6,3h-.5c0-1.1-.2-2.1-.2-3.1,0-1,0-1.9,0-2.8,0-.9,0-1.7,0-2.4v-21.2h3.1v32h-3.5l-13.6-20.2c-.5-.8-1.1-1.6-1.6-2.5-.5-.8-1.1-1.8-1.8-2.9-.6-1.1-1.4-2.3-2.2-3.8h.6c0,1.3,0,2.5.1,3.7,0,1.1,0,2.2.1,3.1,0,.9,0,1.7,0,2.3v20.3h-3.1Z"/>
          <path class="cls-6" d="M882.9,596c-2.7,0-5.1-.7-7.2-2-2.1-1.3-3.7-3.2-4.9-5.7-1.2-2.5-1.8-5.4-1.8-8.7s.6-6.3,1.8-8.7c1.2-2.5,2.8-4.4,4.9-5.7,2.1-1.3,4.5-2,7.2-2s3.3.3,4.7.8c1.4.5,2.7,1.3,3.8,2.2,1.1,1,2,2.1,2.7,3.3.7,1.3,1.2,2.6,1.5,4.1h-3.1c-.2-1.1-.6-2.1-1.2-3s-1.3-1.7-2.1-2.4c-.8-.7-1.8-1.2-2.9-1.6-1.1-.4-2.2-.6-3.5-.6-2,0-3.8.5-5.5,1.6-1.7,1-3,2.6-4,4.6-1,2-1.5,4.5-1.5,7.4s.5,5.4,1.5,7.4,2.3,3.5,4,4.6,3.5,1.5,5.5,1.5,2.4-.2,3.5-.6c1.1-.4,2-.9,2.9-1.6.8-.7,1.5-1.5,2.1-2.4.6-.9,1-1.9,1.2-3h3.1c-.2,1.5-.7,2.8-1.4,4.1s-1.6,2.4-2.7,3.3c-1.1,1-2.4,1.7-3.8,2.2s-3,.8-4.7.8ZM880.7,604.7v-1.8h2.4c.8,0,1.4-.1,1.8-.4.4-.3.6-.7.6-1.3s-.2-1-.6-1.3c-.4-.3-1-.4-1.9-.4h-1.6l.7-4.5h1.7v.8l-.2,2c1.4,0,2.4.3,3.1.9.7.6,1,1.4,1,2.5s-.4,2.1-1.1,2.7c-.8.6-1.9.9-3.5.9h-2.4Z"/>
          <path class="cls-6" d="M898.8,595.5l11.7-32h3.6l11.8,32h-3.2l-7.6-20.9c-.4-1.2-.9-2.5-1.4-4.1-.5-1.6-1.1-3.4-1.8-5.6h.6c-.7,2.2-1.2,4.1-1.8,5.7-.5,1.6-1,2.9-1.4,4l-7.5,20.9h-3.2ZM904.3,586v-2.7h16.3v2.7h-16.3Z"/>
          <path class="cls-6" d="M931.4,595.5v-32h4.3l8.9,22c.2.5.4,1,.6,1.7.2.6.5,1.3.7,2,.3.7.5,1.4.7,2.2.2.7.4,1.4.6,2h-.8c.2-.6.4-1.3.6-2,.2-.7.5-1.4.7-2.1.3-.7.5-1.4.7-2.1.2-.7.4-1.2.6-1.7l8.9-22h4.3v32h-3v-22.4c0-.8,0-1.6,0-2.4,0-.8,0-1.7,0-2.5,0-.8,0-1.6,0-2.4h.3c-.3.9-.6,1.7-.9,2.6-.3.9-.6,1.7-.9,2.6-.3.8-.6,1.6-.8,2.3-.3.7-.5,1.4-.7,1.9l-8.3,20.3h-2.7l-8.4-20.3c-.2-.5-.5-1.1-.7-1.8-.3-.7-.5-1.5-.8-2.3-.3-.8-.6-1.7-.9-2.6-.3-.9-.6-1.8-1-2.7h.4c0,.7,0,1.5,0,2.3,0,.8,0,1.6,0,2.5,0,.8,0,1.6,0,2.4,0,.8,0,1.5,0,2.2v20.3h-2.9Z"/>
          <path class="cls-6" d="M971,595.5v-32h18.7v2.7h-15.6v11.8h14.7v2.7h-14.7v12h15.9v2.7h-19Z"/>
          <path class="cls-6" d="M997.2,595.5v-32h3.5l14.6,21.7c.4.6.9,1.3,1.4,2.1.5.8,1,1.7,1.6,2.6.6.9,1.1,1.9,1.6,3h-.5c0-1.1-.2-2.1-.2-3.1,0-1,0-1.9,0-2.8,0-.9,0-1.7,0-2.4v-21.2h3.1v32h-3.5l-13.6-20.2c-.5-.8-1.1-1.6-1.6-2.5-.5-.8-1.1-1.8-1.8-2.9-.6-1.1-1.4-2.3-2.2-3.8h.6c0,1.3,0,2.5.1,3.7,0,1.1,0,2.2.1,3.1,0,.9,0,1.7,0,2.3v20.3h-3.1Z"/>
          <path class="cls-6" d="M1028.7,566.3v-2.7h23.3v2.7h-10.1v29.3h-3.1v-29.3h-10.2Z"/>
          <path class="cls-6" d="M1069.8,596c-2.7,0-5.1-.7-7.2-2-2.1-1.3-3.7-3.2-4.9-5.7-1.2-2.5-1.8-5.4-1.8-8.7s.6-6.3,1.8-8.7c1.2-2.5,2.8-4.4,4.9-5.7,2.1-1.3,4.5-2,7.2-2s5.1.7,7.2,2c2.1,1.3,3.7,3.3,4.9,5.7,1.2,2.5,1.8,5.4,1.8,8.7s-.6,6.2-1.8,8.7c-1.2,2.5-2.8,4.4-4.9,5.7-2.1,1.3-4.5,2-7.2,2ZM1069.8,593.1c2.1,0,3.9-.5,5.6-1.6,1.6-1.1,2.9-2.6,3.9-4.7,1-2,1.4-4.5,1.4-7.3s-.5-5.3-1.4-7.3c-1-2-2.2-3.6-3.9-4.7-1.6-1.1-3.5-1.6-5.6-1.6s-4,.5-5.6,1.6c-1.6,1.1-2.9,2.6-3.9,4.7-1,2-1.4,4.5-1.4,7.3s.5,5.2,1.4,7.3c1,2,2.3,3.6,3.9,4.7,1.6,1.1,3.5,1.6,5.6,1.6Z"/>
          <path class="cls-6" d="M1100.3,596.1c-2.2,0-4.1-.4-5.7-1.1-1.6-.7-2.9-1.7-3.8-3-.9-1.3-1.4-2.8-1.6-4.5h3.1c.1,1.3.5,2.3,1.3,3.2.7.9,1.7,1.5,2.8,2,1.2.5,2.5.7,3.9.7s3-.3,4.2-.8c1.2-.5,2.2-1.3,2.9-2.2.7-1,1.1-2.1,1.1-3.3s-.3-2-.8-2.7c-.6-.7-1.3-1.3-2.3-1.8-1-.5-2.2-.9-3.5-1.3l-3.8-1.1c-2.5-.7-4.5-1.8-5.9-3.1-1.4-1.3-2.1-3-2.1-5s.5-3.3,1.4-4.6c.9-1.3,2.2-2.3,3.8-3.1,1.6-.7,3.4-1.1,5.3-1.1s3.8.4,5.3,1.1c1.5.7,2.8,1.8,3.7,3,.9,1.3,1.4,2.7,1.5,4.4h-3c-.2-1.8-1-3.2-2.3-4.2s-3.1-1.5-5.2-1.5-2.8.3-3.9.8c-1.1.5-2,1.2-2.6,2.1-.6.9-.9,1.9-.9,3s.3,2,.9,2.8c.6.7,1.4,1.3,2.4,1.8,1,.5,2,.9,3,1.2l3.4,1c1,.3,2.1.7,3.1,1.1,1,.4,2,1,2.8,1.7.8.7,1.5,1.5,2,2.4.5,1,.8,2.1.8,3.4s-.4,3.3-1.3,4.6c-.9,1.4-2.2,2.5-3.8,3.2-1.7.8-3.7,1.2-6,1.2Z"/>
        </g>
        <line class="cls-5" x1="22" y1="527.1" x2="1112.6" y2="527.1"/>
      </g>
    </g>
  </g>
</svg>