<svg xmlns="http://www.w3.org/2000/svg" xmlns:xlink="http://www.w3.org/1999/xlink" width="651.961" height="199.022" viewBox="0 0 651.961 199.022">
  <defs>
    <linearGradient id="linear-gradient" x1="0.202" y1="-0.477" x2="0.798" y2="1.477" gradientUnits="objectBoundingBox">
      <stop offset="0" stop-color="#ffc200"/>
      <stop offset="1" stop-color="#ff9400"/>
    </linearGradient>
  </defs>
  <g id="Grupo_101" data-name="Grupo 101" transform="translate(-8622.131 -7472.466)">
    <rect id="Retângulo_5" data-name="Retângulo 5" width="651.961" height="199.022" rx="62.29" transform="translate(8622.131 7472.466)" fill="url(#linear-gradient)"/>
    <path id="Caminho_231" data-name="Caminho 231" d="M-169.638-64.934a33.123,33.123,0,0,1,7.983-3.261q3.991-1.022,8.08-2.093a2.766,2.766,0,0,1,2.093.438,3.507,3.507,0,0,1,1.314,2.093,164.884,164.884,0,0,1,5.646,18.594q2.239,9.346,4.965,18.594a11.431,11.431,0,0,0,.487,1.363A3.944,3.944,0,0,0-138-27.843q3.7-11.78,7.3-23.365t7.3-23.365q4.478.1,8.421.438t8.226,1.12a5.872,5.872,0,0,1,2.531,1.071q.584.584-.195,2.434-.779,2.239-1.7,4.284t-1.9,4.284q-3.8,10.514-7.691,21.028t-7.788,20.931q-1.558,4.381-2.969,8.421t-2.775,8.324A3.176,3.176,0,0,1-132.449.389q-2.921.1-5.744.049t-5.646.146a2.266,2.266,0,0,1-2.093-.73,14.753,14.753,0,0,1-1.217-1.9l-4.284-10.9q-2.142-5.452-4.284-11-3.407-9.833-6.717-19.568t-6.62-19.568a6.9,6.9,0,0,1-.292-.876Q-169.443-64.35-169.638-64.934Zm65.616,27.259a41.056,41.056,0,0,1,3.5-15.771A36.229,36.229,0,0,1-89.905-66.881a31.044,31.044,0,0,1,9.2-5.111,24.623,24.623,0,0,1,10.368-1.217A26.7,26.7,0,0,1-59.58-70.24a32.373,32.373,0,0,1,8.908,6.961,35.078,35.078,0,0,1,7.5,13.873,42.057,42.057,0,0,1,1.363,15.528,41.47,41.47,0,0,1-4.381,14.846A34.391,34.391,0,0,1-56.027-7.2a33.563,33.563,0,0,1-8.859,4.77,24.094,24.094,0,0,1-9.93,1.266,28.012,28.012,0,0,1-19.665-9.346,35.036,35.036,0,0,1-7.2-12.12A48.291,48.291,0,0,1-104.022-37.676Zm44-6.328a20.429,20.429,0,0,0-4.138-8.81A11.524,11.524,0,0,0-70.386-56.9a8.39,8.39,0,0,0-6.669,1.509q-3.31,2.239-5.452,7.886a27.047,27.047,0,0,0-1.46,11.342,29.078,29.078,0,0,0,3.213,11.05,12.2,12.2,0,0,0,1.606,2.677,19.3,19.3,0,0,0,2.19,2.385,8.265,8.265,0,0,0,5.89,2.385,8.154,8.154,0,0,0,5.793-2.58,18.123,18.123,0,0,0,1.85-2.142,26.49,26.49,0,0,0,1.558-2.434,23.554,23.554,0,0,0,2.726-9.541A32.189,32.189,0,0,0-60.018-44Zm24.63,22.2q0-7.3.1-14.554t.1-14.846q0-4.965-.1-9.881t-.1-9.979A2.205,2.205,0,0,1-32.954-73.5q3.8-.292,7.642-.535t7.545-.243q3.31-.1,2.823,3.115-.1,11.488-.681,22.148T-16.7-27.746a18.077,18.077,0,0,0-.049,2.288q.049,1.12.049,2.288a25.9,25.9,0,0,0,3.8-.341q2.239-.341,4.478-.73l4.186-.73q1.947-.341,3.018-.438a3.8,3.8,0,0,1,2.872.535A3.736,3.736,0,0,1,2.58-22.2q.195,3.7.389,7.545t.389,7.642a2.813,2.813,0,0,1-.584,2.142,4.6,4.6,0,0,1-2.629.487q-10.125.292-18.643.487T-35.388-3.7ZM33.051-48.579q-.1,8.08-.146,16.015T32.857-16.55q-.292,6.036-.292,11.682a2.523,2.523,0,0,1-2.239,2.823,19.367,19.367,0,0,1-2.044.292q-1.071.1-2.142.1-4.284.195-8.178,0a4.966,4.966,0,0,1-2.872-.681,4.009,4.009,0,0,1-.73-2.629q-.195-2.823-.292-5.549t-.195-5.354q-.195-8.664-.341-17.085t-.341-16.891q-.1-.584-.146-1.168T13-52.376q-1.655,0-3.31-.049t-3.31-.049H3.067a3.222,3.222,0,0,1-1.7-.584,2.331,2.331,0,0,1-.73-1.752q-.1-3.115-.146-6.328T.341-67.563a1.76,1.76,0,0,1,.438-1.363,2.916,2.916,0,0,1,1.314-.584,4.721,4.721,0,0,1,.925-.1h.925q10.514-.292,20.882-.438t20.688-.341h.876q2.434,0,2.921.487t.487,2.921q.1,2.921.146,5.939t.049,5.939q0,2.239-.487,2.629a4.581,4.581,0,0,1-2.531.292q-3.407-.195-6.815-.1t-7.107.1ZM87.958-27.161q-2.434.195-4.527.292t-4.527.292q-.195,4.673-.049,11.1t.633,13.143q.1,1.752-.341,2.19A3.7,3.7,0,0,1,76.86.292q-3.5.1-6.912.049T63.231.292q-1.85,0-2.872-.049A2.383,2.383,0,0,1,58.85-.243a2.178,2.178,0,0,1-.584-1.46q-.1-1.022-.195-2.872-.195-4.673-.389-9.492t-.487-9.589q-.389-13.337-.584-26.869a44.039,44.039,0,0,1,.438-6.328,19.49,19.49,0,0,1,1.9-5.939,17.809,17.809,0,0,1,4.43-6.231,18.539,18.539,0,0,1,5.89-3.5,25.994,25.994,0,0,1,6.815-1.46,68.116,68.116,0,0,1,7.3-.195q3.5.195,6.961.438a28.989,28.989,0,0,1,6.474,1.168,16.219,16.219,0,0,1,5.4,2.823,11.864,11.864,0,0,1,3.651,5.306,36.65,36.65,0,0,1,2.288,8.226,66,66,0,0,1,.73,8.518q.1,3.31.049,6.571t-.049,6.474q.195,7.3.341,14.7t.341,14.8a23.381,23.381,0,0,1-.1,2.434,2.135,2.135,0,0,1-.535,1.314,2.673,2.673,0,0,1-1.363.633q-.925.195-2.677.389-1.266.1-2.385.1H100.03Q97.888-.1,95.649.049T91.268.292A4.388,4.388,0,0,1,88.981-.1q-.535-.389-.633-2.142-.195-7.3-.341-13.24T87.958-27.161ZM78.32-41.57q2.629-.195,5.111-.146t4.527.049q0-3.213.049-6.766T87.958-55.1a2.936,2.936,0,0,0-.681-1.8,3.851,3.851,0,0,0-1.46-.974,5.989,5.989,0,0,0-1.9-.389q-1.022-.049-1.9-.049-3.31.195-3.6,3.213a49.824,49.824,0,0,0-.341,6.571Q78.126-45.269,78.32-41.57Zm72.723,9.249q.584.974.974,1.558t.876,1.363l6.815,10.125q3.407,5.062,6.815,10.027a5.134,5.134,0,0,1,1.071,1.558q.974,1.363.73,2.093t-1.9,1.022q-3.7.876-7.4,1.7t-7.594,1.509a1.3,1.3,0,0,1-1.12-.146,7.416,7.416,0,0,1-1.12-.73,2.071,2.071,0,0,1-.535-.876q-.146-.487-.341-.974-3.115-6.036-6.133-12.023t-6.328-12.023q-.1,2.336-.146,4.722t-.146,4.819q-.1,3.407-.292,6.961t-.389,7.058A4.744,4.744,0,0,1,134.2-1.8q-.584.633-2.726.633-2.531.1-4.965.1h-4.965q-2.239-.1-2.823-.73a4.966,4.966,0,0,1-.681-2.872q-.487-13.143-1.022-25.993t-.535-25.993q0-3.115-.195-6.377t-.195-6.377a11.741,11.741,0,0,1,.1-1.7,1.92,1.92,0,0,1,.389-.974,1.639,1.639,0,0,1,.876-.487q.584-.146,1.655-.341t2-.341a12.814,12.814,0,0,1,2-.146q8.956-.487,18.205-.584a33.4,33.4,0,0,1,6.961.535,44.235,44.235,0,0,1,6.766,1.8,19.028,19.028,0,0,1,7.837,5.208,20.764,20.764,0,0,1,4.381,7.691,23.2,23.2,0,0,1,.974,8.713,20.537,20.537,0,0,1-2.385,8.275,18.7,18.7,0,0,1-5.744,6.425A17.5,17.5,0,0,1,151.043-32.321ZM137.122-45.464q2.531.195,4.819.292a7.909,7.909,0,0,0,4.43-1.168,5,5,0,0,0,2.239-2.58,7.214,7.214,0,0,0,.487-3.5,6.585,6.585,0,0,0-1.217-3.213,3.875,3.875,0,0,0-2.872-1.606,26.022,26.022,0,0,0-3.894-.1q-1.947.1-3.991.1Z" transform="translate(8948.109 7611.121)" fill="#fff"/>
  </g>
</svg>
